solid Parc-Top
facet normal -5.344242782608276e-19 1.0 -1.5293615736415147e-09
  outer loop
    vertex 2.5000005621393537 5.500001251910206 36.50000009561299
    vertex 9.500000651488435 5.500001416867983 38.00000009125519
    vertex 9.500000562139357 5.500001251910206 36.500000091255195
  endloop
endfacet
facet normal -5.344242782608276e-19 1.0 -1.5293615736415147e-09
  outer loop
    vertex 9.500000651488435 5.500001416867983 38.00000009125519
    vertex 2.5000005621393537 5.500001251910206 36.50000009561299
    vertex 2.5000006514884316 5.500001416867983 38.00000009561299
  endloop
endfacet
facet normal -1.0 6.91621512725063e-18 2.261144534572896e-09
  outer loop
    vertex 9.500000651488435 5.500001416867983 38.00000009125519
    vertex 9.500000562139357 14.000000627784237 36.50000006678541
    vertex 9.500000562139357 5.500001251910206 36.500000091255195
  endloop
endfacet
facet normal -1.0 6.91621512725063e-18 2.261144534572896e-09
  outer loop
    vertex 9.500000562139357 14.000000627784237 36.50000006678541
    vertex 9.500000651488435 5.500001416867983 38.00000009125519
    vertex 9.500000651488435 14.000000792742012 38.00000006678541
  endloop
endfacet
facet normal 6.381790848989802e-18 -1.0 1.5293615736415147e-09
  outer loop
    vertex 9.500000651488435 14.000000792742012 38.00000006678541
    vertex 2.5000005621393537 14.000000627784237 36.50000009408363
    vertex 9.500000562139357 14.000000627784237 36.50000006678541
  endloop
endfacet
facet normal 6.381790848989802e-18 -1.0 1.5293615736415147e-09
  outer loop
    vertex 2.5000005621393537 14.000000627784237 36.50000009408363
    vertex 9.500000651488435 14.000000792742012 38.00000006678541
    vertex 2.5000006514884316 14.000000792742012 38.00000009408363
  endloop
endfacet
facet normal 1.0 0.0 -2.261144534572896e-09
  outer loop
    vertex 2.5000005621393537 14.000000627784237 36.50000009408363
    vertex 2.5000006514884316 5.500001416867983 38.00000009561299
    vertex 2.5000005621393537 5.500001251910206 36.50000009561299
  endloop
endfacet
facet normal 1.0 0.0 -2.261144534572896e-09
  outer loop
    vertex 2.5000006514884316 5.500001416867983 38.00000009561299
    vertex 2.5000005621393537 14.000000627784237 36.50000009408363
    vertex 2.5000006514884316 14.000000792742012 38.00000009408363
  endloop
endfacet
facet normal -4.1383316755009457e-19 1.0 -1.184266078646554e-09
  outer loop
    vertex 2.5000005625707247 21.000000628129335 36.5000000687337
    vertex 9.500000651488435 21.000000792742018 38.00000006480726
    vertex 9.500000562570728 21.000000628129335 36.50000006480727
  endloop
endfacet
facet normal -4.1383316755009457e-19 1.0 -1.184266078646554e-09
  outer loop
    vertex 9.500000651488435 21.000000792742018 38.00000006480726
    vertex 2.5000005625707247 21.000000628129335 36.5000000687337
    vertex 2.5000006514884334 21.000000792742018 38.00000006873369
  endloop
endfacet
facet normal -1.0 4.333881405906396e-18 1.8297752017263724e-09
  outer loop
    vertex 9.500000651488435 21.000000792742018 38.00000006480726
    vertex 9.500000562570728 29.500000004003372 36.50000004585901
    vertex 9.500000562570728 21.000000628129335 36.50000006480727
  endloop
endfacet
facet normal -1.0 4.333881405906396e-18 1.8297752017263724e-09
  outer loop
    vertex 9.500000562570728 29.500000004003372 36.50000004585901
    vertex 9.500000651488435 21.000000792742018 38.00000006480726
    vertex 9.500000651488435 29.50000016861605 38.00000004585901
  endloop
endfacet
facet normal 3.920048238356303e-18 -1.0 1.184266078646554e-09
  outer loop
    vertex 9.500000651488435 29.50000016861605 38.00000004585901
    vertex 2.5000005625707247 29.500000004003372 36.500000067549436
    vertex 9.500000562570728 29.500000004003372 36.50000004585901
  endloop
endfacet
facet normal 3.920048238356303e-18 -1.0 1.184266078646554e-09
  outer loop
    vertex 2.5000005625707247 29.500000004003372 36.500000067549436
    vertex 9.500000651488435 29.50000016861605 38.00000004585901
    vertex 2.5000006514884334 29.50000016861605 38.00000006754943
  endloop
endfacet
facet normal 1.0 0.0 -1.8297752017263724e-09
  outer loop
    vertex 2.5000005625707247 29.500000004003372 36.500000067549436
    vertex 2.5000006514884334 21.000000792742018 38.00000006873369
    vertex 2.5000005625707247 21.000000628129335 36.5000000687337
  endloop
endfacet
facet normal 1.0 0.0 -1.8297752017263724e-09
  outer loop
    vertex 2.5000006514884334 21.000000792742018 38.00000006873369
    vertex 2.5000005625707247 29.500000004003372 36.500000067549436
    vertex 2.5000006514884334 29.50000016861605 38.00000006754943
  endloop
endfacet
facet normal 1.0 0.0 -1.2623852555885643e-09
  outer loop
    vertex 12.500000563138116 14.000000628583244 36.50000008050051
    vertex 12.500000651488437 5.500001416867982 38.00000008123086
    vertex 12.500000563138116 5.500001252709212 36.50000008123086
  endloop
endfacet
facet normal 1.0 0.0 -1.2623852555885643e-09
  outer loop
    vertex 12.500000651488437 5.500001416867982 38.00000008123086
    vertex 12.500000563138116 14.000000628583244 36.50000008050051
    vertex 12.500000651488437 14.000000792742012 38.00000008050051
  endloop
endfacet
facet normal -2.552169224884525e-19 1.0 -7.303540839632058e-10
  outer loop
    vertex 12.500000563138116 5.500001252709212 36.50000008123086
    vertex 19.50000065148843 5.500001416867982 38.00000007787182
    vertex 19.500000563138112 5.500001252709212 36.50000007787182
  endloop
endfacet
facet normal -2.552169224884525e-19 1.0 -7.303540839632058e-10
  outer loop
    vertex 19.50000065148843 5.500001416867982 38.00000007787182
    vertex 12.500000563138116 5.500001252709212 36.50000008123086
    vertex 12.500000651488437 5.500001416867982 38.00000008123086
  endloop
endfacet
facet normal -1.0 1.8439764539080863e-18 1.2623852555885643e-09
  outer loop
    vertex 19.50000065148843 5.500001416867982 38.00000007787182
    vertex 19.500000563138112 14.000000628583244 36.50000006618616
    vertex 19.500000563138112 5.500001252709212 36.50000007787182
  endloop
endfacet
facet normal -1.0 1.8439764539080863e-18 1.2623852555885643e-09
  outer loop
    vertex 19.500000563138112 14.000000628583244 36.50000006618616
    vertex 19.50000065148843 5.500001416867982 38.00000007787182
    vertex 19.50000065148843 14.000000792742012 38.00000006618615
  endloop
endfacet
facet normal 1.588759531419634e-18 -1.0 7.303540839632058e-10
  outer loop
    vertex 19.50000065148843 14.000000792742012 38.00000006618615
    vertex 12.500000563138116 14.000000628583244 36.50000008050051
    vertex 19.500000563138112 14.000000628583244 36.50000006618616
  endloop
endfacet
facet normal 1.588759531419634e-18 -1.0 7.303540839632058e-10
  outer loop
    vertex 12.500000563138116 14.000000628583244 36.50000008050051
    vertex 19.50000065148843 14.000000792742012 38.00000006618615
    vertex 12.500000651488437 14.000000792742012 38.00000008050051
  endloop
endfacet
facet normal 1.0 0.0 -1.903029001049105e-09
  outer loop
    vertex 12.500000562497473 29.500000003944773 36.500000065109866
    vertex 12.500000651488437 21.000000792960016 38.00000006635274
    vertex 12.500000562497473 21.000000628288735 36.50000006635275
  endloop
endfacet
facet normal 1.0 0.0 -1.903029001049105e-09
  outer loop
    vertex 12.500000651488437 21.000000792960016 38.00000006635274
    vertex 12.500000562497473 29.500000003944773 36.500000065109866
    vertex 12.500000651488437 29.50000016861605 38.000000065109866
  endloop
endfacet
facet normal -4.343115751499516e-19 1.0 -1.242869122981498e-09
  outer loop
    vertex 12.500000562497473 21.000000628288735 36.50000006635275
    vertex 19.50000065148843 21.000000792960016 38.00000006235306
    vertex 19.50000056249747 21.000000628288735 36.50000006235307
  endloop
endfacet
facet normal -4.343115751499516e-19 1.0 -1.242869122981498e-09
  outer loop
    vertex 19.50000065148843 21.000000792960016 38.00000006235306
    vertex 12.500000562497473 21.000000628288735 36.50000006635275
    vertex 12.500000651488437 21.000000792960016 38.00000006635274
  endloop
endfacet
facet normal -1.0 4.730431971084514e-18 1.903029001049105e-09
  outer loop
    vertex 19.50000065148843 21.000000792960016 38.00000006235306
    vertex 19.50000056249747 29.500000003944773 36.50000004246715
    vertex 19.50000056249747 21.000000628288735 36.50000006235307
  endloop
endfacet
facet normal -1.0 4.730431971084514e-18 1.903029001049105e-09
  outer loop
    vertex 19.50000056249747 29.500000003944773 36.50000004246715
    vertex 19.50000065148843 21.000000792960016 38.00000006235306
    vertex 19.50000065148843 29.50000016861605 38.00000004246715
  endloop
endfacet
facet normal 4.296120395934564e-18 -1.0 1.242869122981498e-09
  outer loop
    vertex 19.50000065148843 29.50000016861605 38.00000004246715
    vertex 12.500000562497473 29.500000003944773 36.500000065109866
    vertex 19.50000056249747 29.500000003944773 36.50000004246715
  endloop
endfacet
facet normal 4.296120395934564e-18 -1.0 1.242869122981498e-09
  outer loop
    vertex 12.500000562497473 29.500000003944773 36.500000065109866
    vertex 19.50000065148843 29.50000016861605 38.00000004246715
    vertex 12.500000651488437 29.50000016861605 38.000000065109866
  endloop
endfacet
facet normal 1.0 0.0 -2.1942314298861726e-09
  outer loop
    vertex 22.50000056220627 29.50000000371181 36.50000006587643
    vertex 22.500000651488435 21.000000792742018 38.00000006735226
    vertex 22.50000056220627 21.00000062783777 36.50000006735227
  endloop
endfacet
facet normal 1.0 0.0 -2.1942314298861726e-09
  outer loop
    vertex 22.500000651488435 21.000000792742018 38.00000006735226
    vertex 22.50000056220627 29.50000000371181 36.50000006587643
    vertex 22.500000651488435 29.50000016861605 38.00000006587643
  endloop
endfacet
facet normal -1.3059953338110877e-18 1.0 -1.5435180541108695e-09
  outer loop
    vertex 22.50000056220627 21.00000062783777 36.50000006735227
    vertex 29.50000065148843 21.000000792742018 38.00000006213899
    vertex 29.500000562206274 21.00000062783777 36.50000006213899
  endloop
endfacet
facet normal -1.3059953338110877e-18 1.0 -1.5435180541108695e-09
  outer loop
    vertex 29.50000065148843 21.000000792742018 38.00000006213899
    vertex 22.50000056220627 21.00000062783777 36.50000006735227
    vertex 22.500000651488435 21.000000792742018 38.00000006735226
  endloop
endfacet
facet normal 1.0 2.4810430202319203e-12 -1.9309736043561766e-09
  outer loop
    vertex 31.00000056220627 31.00000000428688 36.5000000760529
    vertex 31.000000652289618 6.50000141686798 38.000000076953654
    vertex 31.00000056220627 6.500001252538807 36.500000076953654
  endloop
endfacet
facet normal 1.0 2.4810430202319203e-12 -1.9309736043561766e-09
  outer loop
    vertex 31.000000652289618 6.50000141686798 38.000000076953654
    vertex 31.00000056220627 31.00000000428688 36.5000000760529
    vertex 31.000000652289618 31.000000168616047 38.0000000760529
  endloop
endfacet
facet normal 5.59447101018363e-18 -1.0 1.5435142941555596e-09
  outer loop
    vertex 29.50000065148843 29.50000016861605 38.000000038525684
    vertex 22.50000056220627 29.50000000371181 36.50000006587643
    vertex 29.500000562206274 29.50000000371181 36.50000003852569
  endloop
endfacet
facet normal 5.59447101018363e-18 -1.0 1.5435142941555596e-09
  outer loop
    vertex 22.50000056220627 29.50000000371181 36.50000006587643
    vertex 29.50000065148843 29.50000016861605 38.000000038525684
    vertex 22.500000651488435 29.50000016861605 38.00000006587643
  endloop
endfacet
facet normal -3.147630994676416e-19 1.0 -9.007579416511826e-10
  outer loop
    vertex 31.00000056220627 6.500001252538807 36.500000076953654
    vertex 40.00000065148843 6.50000141686798 38.000000071162695
    vertex 40.00000056140508 6.500001252538807 36.5000000711627
  endloop
endfacet
facet normal -3.147630994676416e-19 1.0 -9.007579416511826e-10
  outer loop
    vertex 40.00000065148843 6.50000141686798 38.000000071162695
    vertex 31.00000056220627 6.500001252538807 36.500000076953654
    vertex 31.000000652289618 6.50000141686798 38.000000076953654
  endloop
endfacet
facet normal -1.0 5.396294553743437e-18 2.9954188046632543e-09
  outer loop
    vertex 40.00000065148843 6.50000141686798 38.000000071162695
    vertex 40.00000056140508 31.00000000428688 36.500000027926326
    vertex 40.00000056140508 6.500001252538807 36.5000000711627
  endloop
endfacet
facet normal -1.0 5.396294553743437e-18 2.9954188046632543e-09
  outer loop
    vertex 40.00000056140508 31.00000000428688 36.500000027926326
    vertex 40.00000065148843 6.50000141686798 38.000000071162695
    vertex 40.00000065148843 31.000000168616047 38.000000027926326
  endloop
endfacet
facet normal 5.081531454275794e-18 -1.0 9.007579416511826e-10
  outer loop
    vertex 40.00000065148843 31.000000168616047 38.000000027926326
    vertex 31.00000056220627 31.00000000428688 36.5000000760529
    vertex 40.00000056140508 31.00000000428688 36.500000027926326
  endloop
endfacet
facet normal 5.081531454275794e-18 -1.0 9.007579416511826e-10
  outer loop
    vertex 31.00000056220627 31.00000000428688 36.5000000760529
    vertex 40.00000065148843 31.000000168616047 38.000000027926326
    vertex 31.000000652289618 31.000000168616047 38.0000000760529
  endloop
endfacet
facet normal 0.0 1.0 -1.4229670719512199e-09
  outer loop
    vertex 41.50000008813658 6.50000141686798 38.00000007651262
    vertex 51.500000001162384 6.500001252016599 36.50000007662637
    vertex 41.50000000116239 6.500001252016599 36.50000007651262
  endloop
endfacet
facet normal 0.0 1.0 -1.4229670719512199e-09
  outer loop
    vertex 51.500000001162384 6.500001252016599 36.50000007662637
    vertex 41.50000008813658 6.50000141686798 38.00000007651262
    vertex 51.50000008813658 6.50000141686798 38.000000076626364
  endloop
endfacet
facet normal -1.0 -1.327429822285715e-19 -1.1374272141435112e-10
  outer loop
    vertex 51.50000008813658 6.50000141686798 38.000000076626364
    vertex 51.500000001162384 11.000001252016599 36.5000000712467
    vertex 51.500000001162384 6.500001252016599 36.50000007662637
  endloop
endfacet
facet normal -1.0 -1.327429822285715e-19 -1.1374272141435112e-10
  outer loop
    vertex 51.500000001162384 11.000001252016599 36.5000000712467
    vertex 51.50000008813658 6.50000141686798 38.000000076626364
    vertex 51.50000008813658 11.000001416867981 38.0000000712467
  endloop
endfacet
facet normal -3.2370429449348493e-19 -1.0 1.4229670719512199e-09
  outer loop
    vertex 51.500000001162384 11.000001252016599 36.5000000712467
    vertex 41.50000008813658 11.000001416867981 38.00000006908559
    vertex 41.50000000116239 11.000001252016599 36.50000006908559
  endloop
endfacet
facet normal -3.2370429449348493e-19 -1.0 1.4229670719512199e-09
  outer loop
    vertex 41.50000008813658 11.000001416867981 38.00000006908559
    vertex 51.500000001162384 11.000001252016599 36.5000000712467
    vertex 51.50000008813658 11.000001416867981 38.0000000712467
  endloop
endfacet
facet normal 1.0 1.9096131226491357e-19 1.1374272141435112e-10
  outer loop
    vertex 41.50000000116239 11.000001252016599 36.50000006908559
    vertex 41.50000008813658 6.50000141686798 38.00000007651262
    vertex 41.50000000116239 6.500001252016599 36.50000007651262
  endloop
endfacet
facet normal 1.0 1.9096131226491357e-19 1.1374272141435112e-10
  outer loop
    vertex 41.50000008813658 6.50000141686798 38.00000007651262
    vertex 41.50000000116239 11.000001252016599 36.50000006908559
    vertex 41.50000008813658 11.000001416867981 38.00000006908559
  endloop
endfacet
facet normal -1.0 -1.327429822285715e-19 -1.1374272141435109e-10
  outer loop
    vertex 51.50000008813658 11.500001416867983 38.000000071047054
    vertex 51.500000001162384 16.000001252144564 36.500000065667386
    vertex 51.500000001162384 11.5000012520166 36.500000071047054
  endloop
endfacet
facet normal -1.0 -1.327429822285715e-19 -1.1374272141435109e-10
  outer loop
    vertex 51.500000001162384 16.000001252144564 36.500000065667386
    vertex 51.50000008813658 11.500001416867983 38.000000071047054
    vertex 51.50000008813658 16.000001416995943 38.000000065667386
  endloop
endfacet
facet normal -3.237042944934851e-19 -1.0 1.4229670719512205e-09
  outer loop
    vertex 51.500000001162384 16.000001252144564 36.500000065667386
    vertex 41.50000008813658 16.000001416995943 38.00000006350627
    vertex 41.50000000116239 16.000001252144564 36.50000006350627
  endloop
endfacet
facet normal -3.237042944934851e-19 -1.0 1.4229670719512205e-09
  outer loop
    vertex 41.50000008813658 16.000001416995943 38.00000006350627
    vertex 51.500000001162384 16.000001252144564 36.500000065667386
    vertex 51.50000008813658 16.000001416995943 38.000000065667386
  endloop
endfacet
facet normal 1.0 1.9096131226491362e-19 1.1374272141435109e-10
  outer loop
    vertex 41.50000000116239 16.000001252144564 36.50000006350627
    vertex 41.50000008813658 11.500001416867983 38.000000070933304
    vertex 41.50000000116239 11.5000012520166 36.50000007093331
  endloop
endfacet
facet normal 1.0 1.9096131226491362e-19 1.1374272141435109e-10
  outer loop
    vertex 41.50000008813658 11.500001416867983 38.000000070933304
    vertex 41.50000000116239 16.000001252144564 36.50000006350627
    vertex 41.50000008813658 16.000001416995943 38.00000006350627
  endloop
endfacet
facet normal 0.0 1.0 -1.4229670719512205e-09
  outer loop
    vertex 41.50000008813658 11.500001416867983 38.000000070933304
    vertex 51.500000001162384 11.5000012520166 36.500000071047054
    vertex 41.50000000116239 11.5000012520166 36.50000007093331
  endloop
endfacet
facet normal 0.0 1.0 -1.4229670719512205e-09
  outer loop
    vertex 51.500000001162384 11.5000012520166 36.500000071047054
    vertex 41.50000008813658 11.500001416867983 38.000000070933304
    vertex 51.50000008813658 11.500001416867983 38.000000071047054
  endloop
endfacet
facet normal 0.0 1.0 -1.4229670719512195e-09
  outer loop
    vertex 52.50000008813658 6.50000141686798 38.00000007651262
    vertex 62.50000000116238 6.500001252016599 36.50000007662637
    vertex 52.500000001162384 6.500001252016599 36.50000007651262
  endloop
endfacet
facet normal 0.0 1.0 -1.4229670719512195e-09
  outer loop
    vertex 62.50000000116238 6.500001252016599 36.50000007662637
    vertex 52.50000008813658 6.50000141686798 38.00000007651262
    vertex 62.500000088136574 6.50000141686798 38.000000076626364
  endloop
endfacet
facet normal -1.0 -1.3274298222857155e-19 -1.1374272141435117e-10
  outer loop
    vertex 62.500000088136574 6.50000141686798 38.000000076626364
    vertex 62.50000000116238 11.000001252016599 36.5000000712467
    vertex 62.50000000116238 6.500001252016599 36.50000007662637
  endloop
endfacet
facet normal -1.0 -1.3274298222857155e-19 -1.1374272141435117e-10
  outer loop
    vertex 62.50000000116238 11.000001252016599 36.5000000712467
    vertex 62.500000088136574 6.50000141686798 38.000000076626364
    vertex 62.500000088136574 11.000001416867981 38.0000000712467
  endloop
endfacet
facet normal -3.237042944934851e-19 -1.0 1.4229670719512195e-09
  outer loop
    vertex 62.50000000116238 11.000001252016599 36.5000000712467
    vertex 52.50000008813658 11.000001416867981 38.00000006908559
    vertex 52.500000001162384 11.000001252016599 36.50000006908559
  endloop
endfacet
facet normal -3.237042944934851e-19 -1.0 1.4229670719512195e-09
  outer loop
    vertex 52.50000008813658 11.000001416867981 38.00000006908559
    vertex 62.50000000116238 11.000001252016599 36.5000000712467
    vertex 62.500000088136574 11.000001416867981 38.0000000712467
  endloop
endfacet
facet normal 1.0 1.909613122649137e-19 1.1374272141435117e-10
  outer loop
    vertex 52.500000001162384 11.000001252016599 36.50000006908559
    vertex 52.50000008813658 6.50000141686798 38.00000007651262
    vertex 52.500000001162384 6.500001252016599 36.50000007651262
  endloop
endfacet
facet normal 1.0 1.909613122649137e-19 1.1374272141435117e-10
  outer loop
    vertex 52.50000008813658 6.50000141686798 38.00000007651262
    vertex 52.500000001162384 11.000001252016599 36.50000006908559
    vertex 52.50000008813658 11.000001416867981 38.00000006908559
  endloop
endfacet
facet normal 0.0 1.0 -1.4229670719512207e-09
  outer loop
    vertex 52.50000008813658 11.500001416867983 38.000000070933304
    vertex 62.50000000116238 11.5000012520166 36.500000071047054
    vertex 52.500000001162384 11.5000012520166 36.50000007093331
  endloop
endfacet
facet normal 0.0 1.0 -1.4229670719512207e-09
  outer loop
    vertex 62.50000000116238 11.5000012520166 36.500000071047054
    vertex 52.50000008813658 11.500001416867983 38.000000070933304
    vertex 62.500000088136574 11.500001416867983 38.000000071047054
  endloop
endfacet
facet normal -1.0 -1.3274298222857164e-19 -1.1374272141435122e-10
  outer loop
    vertex 62.500000088136574 11.500001416867983 38.000000071047054
    vertex 62.50000000116238 16.000001252144568 36.50000006566739
    vertex 62.50000000116238 11.5000012520166 36.500000071047054
  endloop
endfacet
facet normal -1.0 -1.3274298222857164e-19 -1.1374272141435122e-10
  outer loop
    vertex 62.50000000116238 16.000001252144568 36.50000006566739
    vertex 62.500000088136574 11.500001416867983 38.000000071047054
    vertex 62.500000088136574 16.000001416995946 38.00000006566739
  endloop
endfacet
facet normal -3.237042944934854e-19 -1.0 1.4229670719512207e-09
  outer loop
    vertex 62.50000000116238 16.000001252144568 36.50000006566739
    vertex 52.50000008813658 16.000001416995946 38.00000006350628
    vertex 52.500000001162384 16.000001252144568 36.50000006350628
  endloop
endfacet
facet normal -3.237042944934854e-19 -1.0 1.4229670719512207e-09
  outer loop
    vertex 52.50000008813658 16.000001416995946 38.00000006350628
    vertex 62.50000000116238 16.000001252144568 36.50000006566739
    vertex 62.500000088136574 16.000001416995946 38.00000006566739
  endloop
endfacet
facet normal 1.0 1.9096131226491381e-19 1.1374272141435122e-10
  outer loop
    vertex 52.500000001162384 16.000001252144568 36.50000006350628
    vertex 52.50000008813658 11.500001416867983 38.000000070933304
    vertex 52.500000001162384 11.5000012520166 36.50000007093331
  endloop
endfacet
facet normal 1.0 1.9096131226491381e-19 1.1374272141435122e-10
  outer loop
    vertex 52.50000008813658 11.500001416867983 38.000000070933304
    vertex 52.500000001162384 16.000001252144568 36.50000006350628
    vertex 52.50000008813658 16.000001416995946 38.00000006350628
  endloop
endfacet
facet normal -1.0 -1.5545074827518467e-19 -1.7061423878633128e-10
  outer loop
    vertex 62.500000088136574 16.500001416867978 38.00000005548387
    vertex 62.50000000121925 21.000001252336506 36.50000005119186
    vertex 62.50000000121925 16.50000125214456 36.50000005548387
  endloop
endfacet
facet normal -1.0 -1.5545074827518467e-19 -1.7061423878633128e-10
  outer loop
    vertex 62.50000000121925 21.000001252336506 36.50000005119186
    vertex 62.500000088136574 16.500001416867978 38.00000005548387
    vertex 62.500000088136574 21.000001417059927 38.00000005119186
  endloop
endfacet
facet normal -4.418929796952461e-19 -1.0 1.295006157864264e-09
  outer loop
    vertex 62.50000000121925 21.000001252336506 36.50000005119186
    vertex 52.50000008813658 21.000001417059927 38.00000004795018
    vertex 52.500000001219256 21.000001252336506 36.50000004795019
  endloop
endfacet
facet normal -4.418929796952461e-19 -1.0 1.295006157864264e-09
  outer loop
    vertex 52.50000008813658 21.000001417059927 38.00000004795018
    vertex 62.50000000121925 21.000001252336506 36.50000005119186
    vertex 62.500000088136574 21.000001417059927 38.00000005119186
  endloop
endfacet
facet normal 1.0 2.864422314200613e-19 1.7061423878633128e-10
  outer loop
    vertex 52.500000001219256 21.000001252336506 36.50000004795019
    vertex 52.50000008813658 16.500001416867978 38.00000005531325
    vertex 52.500000001219256 16.50000125214456 36.50000005531325
  endloop
endfacet
facet normal 1.0 2.864422314200613e-19 1.7061423878633128e-10
  outer loop
    vertex 52.50000008813658 16.500001416867978 38.00000005531325
    vertex 52.500000001219256 21.000001252336506 36.50000004795019
    vertex 52.50000008813658 21.000001417059927 38.00000004795018
  endloop
endfacet
facet normal 0.0 1.0 -1.295006157864264e-09
  outer loop
    vertex 52.50000008813658 16.500001416867978 38.00000005531325
    vertex 62.50000000121925 16.50000125214456 36.50000005548387
    vertex 52.500000001219256 16.50000125214456 36.50000005531325
  endloop
endfacet
facet normal 0.0 1.0 -1.295006157864264e-09
  outer loop
    vertex 62.50000000121925 16.50000125214456 36.50000005548387
    vertex 52.50000008813658 16.500001416867978 38.00000005531325
    vertex 62.500000088136574 16.500001416867978 38.00000005548387
  endloop
endfacet
facet normal -4.900705891078226e-19 -1.0 1.2310267583082184e-09
  outer loop
    vertex 62.50000000124768 26.000001252208545 36.5000000362202
    vertex 52.50000008813658 26.000001416867978 38.000000032438265
    vertex 52.500000001247685 26.000001252208545 36.500000032438265
  endloop
endfacet
facet normal -4.900705891078226e-19 -1.0 1.2310267583082184e-09
  outer loop
    vertex 52.50000008813658 26.000001416867978 38.000000032438265
    vertex 62.50000000124768 26.000001252208545 36.5000000362202
    vertex 62.500000088136574 26.000001416867978 38.0000000362202
  endloop
endfacet
facet normal 1.0 3.3418190192956255e-19 1.9904952747790768e-10
  outer loop
    vertex 52.500000001247685 26.000001252208545 36.500000032438265
    vertex 52.50000008813658 21.500001416867985 38.00000003976933
    vertex 52.500000001247685 21.50000125220854 36.50000003976933
  endloop
endfacet
facet normal 1.0 3.3418190192956255e-19 1.9904952747790768e-10
  outer loop
    vertex 52.50000008813658 21.500001416867985 38.00000003976933
    vertex 52.500000001247685 26.000001252208545 36.500000032438265
    vertex 52.50000008813658 26.000001416867978 38.000000032438265
  endloop
endfacet
facet normal 0.0 1.0 -1.2310267583082184e-09
  outer loop
    vertex 52.50000008813658 21.500001416867985 38.00000003976933
    vertex 62.50000000124768 21.50000125220854 36.50000003996838
    vertex 52.500000001247685 21.50000125220854 36.50000003976933
  endloop
endfacet
facet normal 0.0 1.0 -1.2310267583082184e-09
  outer loop
    vertex 62.50000000124768 21.50000125220854 36.50000003996838
    vertex 52.50000008813658 21.500001416867985 38.00000003976933
    vertex 62.500000088136574 21.500001416867985 38.00000003996838
  endloop
endfacet
facet normal -1.0 -1.5588868717826012e-19 -1.9904952747790768e-10
  outer loop
    vertex 62.500000088136574 21.500001416867985 38.00000003996838
    vertex 62.50000000124768 26.000001252208545 36.5000000362202
    vertex 62.50000000124768 21.50000125220854 36.50000003996838
  endloop
endfacet
facet normal -1.0 -1.5588868717826012e-19 -1.9904952747790768e-10
  outer loop
    vertex 62.50000000124768 26.000001252208545 36.5000000362202
    vertex 62.500000088136574 21.500001416867985 38.00000003996838
    vertex 62.500000088136574 26.000001416867978 38.0000000362202
  endloop
endfacet
facet normal 0.9007686813688787 -2.3418232578486858e-07 -0.4342991856599745
  outer loop
    vertex 65.97774422849317 2.8974240130735794e-06 31.000014144289285
    vertex 67.50000633838359 35.999999193425715 34.15726461387124
    vertex 67.50000000052417 7.269749085222958e-07 34.15727088056063
  endloop
endfacet
facet normal 0.9007686813688787 -2.3418232578486858e-07 -0.4342991856599745
  outer loop
    vertex 67.50000633838359 35.999999193425715 34.15726461387124
    vertex 65.97774422849317 2.8974240130735794e-06 31.000014144289285
    vertex 65.97775084203539 35.99999933175692 30.999993954778613
  endloop
endfacet
facet normal 0.9999999999999846 -1.7605165840962508e-07 5.004264398660103e-14
  outer loop
    vertex 67.50000633838359 35.999999193425715 34.15726461387124
    vertex 67.50000008813657 1.4168679812849757e-06 38.000000084027334
    vertex 67.50000000052417 7.269749085222958e-07 34.15727088056063
  endloop
endfacet
facet normal 0.9999999999999846 -1.7605165840962508e-07 5.004264398660103e-14
  outer loop
    vertex 67.50000008813657 1.4168679812849757e-06 38.000000084027334
    vertex 67.50000633838359 35.999999193425715 34.15726461387124
    vertex 67.50000642599599 35.99999988331879 37.999993817337945
  endloop
endfacet
facet normal -0.9007686455740709 2.0502853532763042e-07 0.43429925990106405
  outer loop
    vertex 66.0 1.5000012482519347 34.500000082238714
    vertex 64.31249834236704 3.1940468348451433e-06 31.000014294640124
    vertex 66.0 1.2482519347767007e-06 34.50000008402734
  endloop
endfacet
facet normal -0.9007686455740709 2.0502853532763042e-07 0.43429925990106405
  outer loop
    vertex 64.31249834236704 3.1940468348451433e-06 31.000014294640124
    vertex 66.0 1.5000012482519347 34.500000082238714
    vertex 64.31250495590926 35.99999962837974 30.999994105129453
  endloop
endfacet
facet normal -0.9007686455740709 2.0502853532763042e-07 0.43429925990106405
  outer loop
    vertex 64.31250495590926 35.99999962837974 30.999994105129453
    vertex 66.0 1.5000012482519347 34.500000082238714
    vertex 66.0 34.50000000000001 34.50000000175057
  endloop
endfacet
facet normal -0.9007686455740709 2.0502853532763042e-07 0.43429925990106405
  outer loop
    vertex 64.31250495590926 35.99999962837974 30.999994105129453
    vertex 66.0 34.50000000000001 34.50000000175057
    vertex 66.0 36.0 34.50000000000001
  endloop
endfacet
facet normal -1.1533975541496032e-10 -0.999999999999988 -1.5599665964573673e-07
  outer loop
    vertex 67.50000000052417 7.269749085222958e-07 34.15727088056063
    vertex 64.31249834236704 3.1940468348451433e-06 31.000014294640124
    vertex 65.97774422849317 2.8974240130735794e-06 31.000014144289285
  endloop
endfacet
facet normal -1.1533975541496032e-10 -0.999999999999988 -1.5599665964573673e-07
  outer loop
    vertex 64.31249834236704 3.1940468348451433e-06 31.000014294640124
    vertex 67.50000000052417 7.269749085222958e-07 34.15727088056063
    vertex 66.0 1.2482519347767007e-06 34.50000008402734
  endloop
endfacet
facet normal -1.1533975541496032e-10 -0.999999999999988 -1.5599665964573673e-07
  outer loop
    vertex 66.0 1.2482519347767007e-06 34.50000008402734
    vertex 67.50000000052417 7.269749085222958e-07 34.15727088056063
    vertex 67.50000008813657 1.4168679812849757e-06 38.000000084027334
  endloop
endfacet
facet normal -1.1533975541496032e-10 -0.999999999999988 -1.5599665964573673e-07
  outer loop
    vertex 66.0 1.2482519347767007e-06 34.50000008402734
    vertex 67.50000008813657 1.4168679812849757e-06 38.000000084027334
    vertex -1.9999994366481304 1.251168377964555e-06 34.50000019450388
  endloop
endfacet
facet normal -1.1533975541496032e-10 -0.999999999999988 -1.5599665964573673e-07
  outer loop
    vertex -1.9999994366481304 1.251168377964555e-06 34.50000019450388
    vertex 67.50000008813657 1.4168679812849757e-06 38.000000084027334
    vertex -3.5000003323554396 1.9407226389428536e-06 37.99999989543435
  endloop
endfacet
facet normal -1.1533975541496032e-10 -0.999999999999988 -1.5599665964573673e-07
  outer loop
    vertex -2.0000004199678423 1.7955737552486512e-06 31.000000005910874
    vertex -3.5000003323554396 1.9407226389428536e-06 37.99999989543435
    vertex -3.5000004199678534 1.8267156950035712e-06 30.999999895434335
  endloop
endfacet
facet normal -1.1533975541496032e-10 -0.999999999999988 -1.5599665964573673e-07
  outer loop
    vertex -3.5000003323554396 1.9407226389428536e-06 37.99999989543435
    vertex -2.0000004199678423 1.7955737552486512e-06 31.000000005910874
    vertex -1.9999994366481304 1.251168377964555e-06 34.50000019450388
  endloop
endfacet
facet normal 1.5010301376151474e-16 7.976990834390336e-09 -1.0
  outer loop
    vertex -3.4999999999999942 36.00000006228388 31.000000182605998
    vertex -2.0000004199678423 1.7955737552486512e-06 31.000000005910874
    vertex -3.5000004199678534 1.8267156950035712e-06 30.999999895434335
  endloop
endfacet
facet normal 1.5010301376151474e-16 7.976990834390336e-09 -1.0
  outer loop
    vertex -2.0000004199678423 1.7955737552486512e-06 31.000000005910874
    vertex -3.4999999999999942 36.00000006228388 31.000000182605998
    vertex -1.9999999999999822 36.000000031141944 31.00000029308254
  endloop
endfacet
facet normal -1.0 1.1665774448630323e-08 1.2153583599842544e-16
  outer loop
    vertex -3.5000003323554396 1.9407226389428536e-06 37.99999989543435
    vertex -3.4999999999999942 36.00000006228388 31.000000182605998
    vertex -3.5000004199678534 1.8267156950035712e-06 30.999999895434335
  endloop
endfacet
facet normal -1.0 1.1665774448630323e-08 1.2153583599842544e-16
  outer loop
    vertex -3.4999999999999942 36.00000006228388 31.000000182605998
    vertex -3.5000003323554396 1.9407226389428536e-06 37.99999989543435
    vertex -3.499999912387581 36.000000176290825 38.000000182606016
  endloop
endfacet
facet normal 4.3806206575067914e-08 8.304885724037547e-08 0.9999999999999958
  outer loop
    vertex -3.5000003323554396 1.9407226389428536e-06 37.99999989543435
    vertex 2.5000006514884316 5.500001416867983 38.00000009561299
    vertex -3.499999912387581 36.000000176290825 38.000000182606016
  endloop
endfacet
facet normal 4.3806206575067914e-08 8.304885724037547e-08 0.9999999999999958
  outer loop
    vertex 2.5000006514884316 5.500001416867983 38.00000009561299
    vertex -3.5000003323554396 1.9407226389428536e-06 37.99999989543435
    vertex 67.50000008813657 1.4168679812849757e-06 38.000000084027334
  endloop
endfacet
facet normal 4.3806206575067914e-08 8.304885724037547e-08 0.9999999999999958
  outer loop
    vertex 2.5000006514884316 5.500001416867983 38.00000009561299
    vertex 67.50000008813657 1.4168679812849757e-06 38.000000084027334
    vertex 9.500000651488435 5.500001416867983 38.00000009125519
  endloop
endfacet
facet normal 4.3806206575067914e-08 8.304885724037547e-08 0.9999999999999958
  outer loop
    vertex 9.500000651488435 5.500001416867983 38.00000009125519
    vertex 67.50000008813657 1.4168679812849757e-06 38.000000084027334
    vertex 12.500000651488437 5.500001416867982 38.00000008123086
  endloop
endfacet
facet normal 4.3806206575067914e-08 8.304885724037547e-08 0.9999999999999958
  outer loop
    vertex 9.500000651488435 5.500001416867983 38.00000009125519
    vertex 12.500000651488437 5.500001416867982 38.00000008123086
    vertex 9.500000651488435 14.000000792742012 38.00000006678541
  endloop
endfacet
facet normal 4.3806206575067914e-08 8.304885724037547e-08 0.9999999999999958
  outer loop
    vertex 9.500000651488435 14.000000792742012 38.00000006678541
    vertex 12.500000651488437 5.500001416867982 38.00000008123086
    vertex 9.500000651488435 21.000000792742018 38.00000006480726
  endloop
endfacet
facet normal 4.3806206575067914e-08 8.304885724037547e-08 0.9999999999999958
  outer loop
    vertex 9.500000651488435 21.000000792742018 38.00000006480726
    vertex 12.500000651488437 5.500001416867982 38.00000008123086
    vertex 9.500000651488435 29.50000016861605 38.00000004585901
  endloop
endfacet
facet normal 4.3806206575067914e-08 8.304885724037547e-08 0.9999999999999958
  outer loop
    vertex 12.500000651488437 5.500001416867982 38.00000008123086
    vertex 67.50000008813657 1.4168679812849757e-06 38.000000084027334
    vertex 19.50000065148843 5.500001416867982 38.00000007787182
  endloop
endfacet
facet normal 4.3806206575067914e-08 8.304885724037547e-08 0.9999999999999958
  outer loop
    vertex 19.50000065148843 5.500001416867982 38.00000007787182
    vertex 67.50000008813657 1.4168679812849757e-06 38.000000084027334
    vertex 31.000000652289618 6.50000141686798 38.000000076953654
  endloop
endfacet
facet normal 4.3806206575067914e-08 8.304885724037547e-08 0.9999999999999958
  outer loop
    vertex 19.50000065148843 5.500001416867982 38.00000007787182
    vertex 31.000000652289618 6.50000141686798 38.000000076953654
    vertex 19.50000065148843 14.000000792742012 38.00000006618615
  endloop
endfacet
facet normal 4.3806206575067914e-08 8.304885724037547e-08 0.9999999999999958
  outer loop
    vertex 19.50000065148843 14.000000792742012 38.00000006618615
    vertex 31.000000652289618 6.50000141686798 38.000000076953654
    vertex 19.50000065148843 21.000000792960016 38.00000006235306
  endloop
endfacet
facet normal 4.3806206575067914e-08 8.304885724037547e-08 0.9999999999999958
  outer loop
    vertex 19.50000065148843 21.000000792960016 38.00000006235306
    vertex 31.000000652289618 6.50000141686798 38.000000076953654
    vertex 22.500000651488435 21.000000792742018 38.00000006735226
  endloop
endfacet
facet normal 4.3806206575067914e-08 8.304885724037547e-08 0.9999999999999958
  outer loop
    vertex 19.50000065148843 21.000000792960016 38.00000006235306
    vertex 22.500000651488435 21.000000792742018 38.00000006735226
    vertex 19.50000065148843 29.50000016861605 38.00000004246715
  endloop
endfacet
facet normal 4.3806206575067914e-08 8.304885724037547e-08 0.9999999999999958
  outer loop
    vertex 22.500000651488435 21.000000792742018 38.00000006735226
    vertex 31.000000652289618 6.50000141686798 38.000000076953654
    vertex 29.50000065148843 21.000000792742018 38.00000006213899
  endloop
endfacet
facet normal 4.3806206575067914e-08 8.304885724037547e-08 0.9999999999999958
  outer loop
    vertex 29.50000065148843 21.000000792742018 38.00000006213899
    vertex 31.000000652289618 6.50000141686798 38.000000076953654
    vertex 29.50000065148843 29.50000016861605 38.000000038525684
  endloop
endfacet
facet normal 4.3806206575067914e-08 8.304885724037547e-08 0.9999999999999958
  outer loop
    vertex 31.000000652289618 6.50000141686798 38.000000076953654
    vertex 67.50000008813657 1.4168679812849757e-06 38.000000084027334
    vertex 40.00000065148843 6.50000141686798 38.000000071162695
  endloop
endfacet
facet normal 4.3806206575067914e-08 8.304885724037547e-08 0.9999999999999958
  outer loop
    vertex 40.00000065148843 6.50000141686798 38.000000071162695
    vertex 67.50000008813657 1.4168679812849757e-06 38.000000084027334
    vertex 41.50000008813658 6.50000141686798 38.00000007651262
  endloop
endfacet
facet normal 4.3806206575067914e-08 8.304885724037547e-08 0.9999999999999958
  outer loop
    vertex 40.00000065148843 6.50000141686798 38.000000071162695
    vertex 41.50000008813658 6.50000141686798 38.00000007651262
    vertex 40.00000065148843 31.000000168616047 38.000000027926326
  endloop
endfacet
facet normal 4.3806206575067914e-08 8.304885724037547e-08 0.9999999999999958
  outer loop
    vertex 41.50000008813658 6.50000141686798 38.00000007651262
    vertex 67.50000008813657 1.4168679812849757e-06 38.000000084027334
    vertex 51.50000008813658 6.50000141686798 38.000000076626364
  endloop
endfacet
facet normal 4.3806206575067914e-08 8.304885724037547e-08 0.9999999999999958
  outer loop
    vertex 51.50000008813658 6.50000141686798 38.000000076626364
    vertex 67.50000008813657 1.4168679812849757e-06 38.000000084027334
    vertex 52.50000008813658 6.50000141686798 38.00000007651262
  endloop
endfacet
facet normal 4.3806206575067914e-08 8.304885724037547e-08 0.9999999999999958
  outer loop
    vertex 51.50000008813658 6.50000141686798 38.000000076626364
    vertex 52.50000008813658 6.50000141686798 38.00000007651262
    vertex 51.50000008813658 11.000001416867981 38.0000000712467
  endloop
endfacet
facet normal 4.3806206575067914e-08 8.304885724037547e-08 0.9999999999999958
  outer loop
    vertex 51.50000008813658 11.000001416867981 38.0000000712467
    vertex 52.50000008813658 6.50000141686798 38.00000007651262
    vertex 51.50000008813658 11.500001416867983 38.000000071047054
  endloop
endfacet
facet normal 4.3806206575067914e-08 8.304885724037547e-08 0.9999999999999958
  outer loop
    vertex 51.50000008813658 11.500001416867983 38.000000071047054
    vertex 52.50000008813658 6.50000141686798 38.00000007651262
    vertex 51.50000008813658 16.000001416995943 38.000000065667386
  endloop
endfacet
facet normal 4.3806206575067914e-08 8.304885724037547e-08 0.9999999999999958
  outer loop
    vertex 52.50000008813658 6.50000141686798 38.00000007651262
    vertex 67.50000008813657 1.4168679812849757e-06 38.000000084027334
    vertex 62.500000088136574 6.50000141686798 38.000000076626364
  endloop
endfacet
facet normal 4.3806206575067914e-08 8.304885724037547e-08 0.9999999999999958
  outer loop
    vertex 62.500000088136574 6.50000141686798 38.000000076626364
    vertex 67.50000008813657 1.4168679812849757e-06 38.000000084027334
    vertex 62.500000088136574 11.000001416867981 38.0000000712467
  endloop
endfacet
facet normal 4.3806206575067914e-08 8.304885724037547e-08 0.9999999999999958
  outer loop
    vertex 62.500000088136574 11.000001416867981 38.0000000712467
    vertex 67.50000008813657 1.4168679812849757e-06 38.000000084027334
    vertex 62.500000088136574 11.500001416867983 38.000000071047054
  endloop
endfacet
facet normal 4.3806206575067914e-08 8.304885724037547e-08 0.9999999999999958
  outer loop
    vertex 62.500000088136574 11.500001416867983 38.000000071047054
    vertex 67.50000008813657 1.4168679812849757e-06 38.000000084027334
    vertex 62.500000088136574 16.000001416995946 38.00000006566739
  endloop
endfacet
facet normal 4.3806206575067914e-08 8.304885724037547e-08 0.9999999999999958
  outer loop
    vertex 62.500000088136574 16.000001416995946 38.00000006566739
    vertex 67.50000008813657 1.4168679812849757e-06 38.000000084027334
    vertex 62.500000088136574 16.500001416867978 38.00000005548387
  endloop
endfacet
facet normal 4.3806206575067914e-08 8.304885724037547e-08 0.9999999999999958
  outer loop
    vertex 62.500000088136574 16.500001416867978 38.00000005548387
    vertex 67.50000008813657 1.4168679812849757e-06 38.000000084027334
    vertex 62.500000088136574 21.000001417059927 38.00000005119186
  endloop
endfacet
facet normal 4.3806206575067914e-08 8.304885724037547e-08 0.9999999999999958
  outer loop
    vertex 62.500000088136574 21.000001417059927 38.00000005119186
    vertex 67.50000008813657 1.4168679812849757e-06 38.000000084027334
    vertex 62.500000088136574 21.500001416867985 38.00000003996838
  endloop
endfacet
facet normal 4.3806206575067914e-08 8.304885724037547e-08 0.9999999999999958
  outer loop
    vertex 62.500000088136574 21.500001416867985 38.00000003996838
    vertex 67.50000008813657 1.4168679812849757e-06 38.000000084027334
    vertex 62.500000088136574 26.000001416867978 38.0000000362202
  endloop
endfacet
facet normal 4.3806206575067914e-08 8.304885724037547e-08 0.9999999999999958
  outer loop
    vertex -3.499999912387581 36.000000176290825 38.000000182606016
    vertex 2.5000006514884334 29.50000016861605 38.00000006754943
    vertex 67.50000642599599 35.99999988331879 37.999993817337945
  endloop
endfacet
facet normal 4.3806206575067914e-08 8.304885724037547e-08 0.9999999999999958
  outer loop
    vertex 2.5000006514884334 29.50000016861605 38.00000006754943
    vertex -3.499999912387581 36.000000176290825 38.000000182606016
    vertex 2.5000006514884316 14.000000792742012 38.00000009408363
  endloop
endfacet
facet normal 4.3806206575067914e-08 8.304885724037547e-08 0.9999999999999958
  outer loop
    vertex 2.5000006514884316 14.000000792742012 38.00000009408363
    vertex -3.499999912387581 36.000000176290825 38.000000182606016
    vertex 2.5000006514884316 5.500001416867983 38.00000009561299
  endloop
endfacet
facet normal 4.3806206575067914e-08 8.304885724037547e-08 0.9999999999999958
  outer loop
    vertex 2.5000006514884334 29.50000016861605 38.00000006754943
    vertex 2.5000006514884316 14.000000792742012 38.00000009408363
    vertex 2.5000006514884334 21.000000792742018 38.00000006873369
  endloop
endfacet
facet normal 4.3806206575067914e-08 8.304885724037547e-08 0.9999999999999958
  outer loop
    vertex 67.50000642599599 35.99999988331879 37.999993817337945
    vertex 2.5000006514884334 29.50000016861605 38.00000006754943
    vertex 9.500000651488435 29.50000016861605 38.00000004585901
  endloop
endfacet
facet normal 4.3806206575067914e-08 8.304885724037547e-08 0.9999999999999958
  outer loop
    vertex 67.50000642599599 35.99999988331879 37.999993817337945
    vertex 9.500000651488435 29.50000016861605 38.00000004585901
    vertex 12.500000651488437 29.50000016861605 38.000000065109866
  endloop
endfacet
facet normal 4.3806206575067914e-08 8.304885724037547e-08 0.9999999999999958
  outer loop
    vertex 12.500000651488437 29.50000016861605 38.000000065109866
    vertex 9.500000651488435 29.50000016861605 38.00000004585901
    vertex 12.500000651488437 5.500001416867982 38.00000008123086
  endloop
endfacet
facet normal 4.3806206575067914e-08 8.304885724037547e-08 0.9999999999999958
  outer loop
    vertex 12.500000651488437 29.50000016861605 38.000000065109866
    vertex 12.500000651488437 5.500001416867982 38.00000008123086
    vertex 12.500000651488437 14.000000792742012 38.00000008050051
  endloop
endfacet
facet normal 4.3806206575067914e-08 8.304885724037547e-08 0.9999999999999958
  outer loop
    vertex 12.500000651488437 29.50000016861605 38.000000065109866
    vertex 12.500000651488437 14.000000792742012 38.00000008050051
    vertex 12.500000651488437 21.000000792960016 38.00000006635274
  endloop
endfacet
facet normal 4.3806206575067914e-08 8.304885724037547e-08 0.9999999999999958
  outer loop
    vertex 67.50000642599599 35.99999988331879 37.999993817337945
    vertex 12.500000651488437 29.50000016861605 38.000000065109866
    vertex 19.50000065148843 29.50000016861605 38.00000004246715
  endloop
endfacet
facet normal 4.3806206575067914e-08 8.304885724037547e-08 0.9999999999999958
  outer loop
    vertex 67.50000642599599 35.99999988331879 37.999993817337945
    vertex 19.50000065148843 29.50000016861605 38.00000004246715
    vertex 31.000000652289618 31.000000168616047 38.0000000760529
  endloop
endfacet
facet normal 4.3806206575067914e-08 8.304885724037547e-08 0.9999999999999958
  outer loop
    vertex 31.000000652289618 31.000000168616047 38.0000000760529
    vertex 19.50000065148843 29.50000016861605 38.00000004246715
    vertex 22.500000651488435 29.50000016861605 38.00000006587643
  endloop
endfacet
facet normal 4.3806206575067914e-08 8.304885724037547e-08 0.9999999999999958
  outer loop
    vertex 22.500000651488435 29.50000016861605 38.00000006587643
    vertex 19.50000065148843 29.50000016861605 38.00000004246715
    vertex 22.500000651488435 21.000000792742018 38.00000006735226
  endloop
endfacet
facet normal 4.3806206575067914e-08 8.304885724037547e-08 0.9999999999999958
  outer loop
    vertex 31.000000652289618 31.000000168616047 38.0000000760529
    vertex 22.500000651488435 29.50000016861605 38.00000006587643
    vertex 29.50000065148843 29.50000016861605 38.000000038525684
  endloop
endfacet
facet normal 4.3806206575067914e-08 8.304885724037547e-08 0.9999999999999958
  outer loop
    vertex 31.000000652289618 31.000000168616047 38.0000000760529
    vertex 29.50000065148843 29.50000016861605 38.000000038525684
    vertex 31.000000652289618 6.50000141686798 38.000000076953654
  endloop
endfacet
facet normal 4.3806206575067914e-08 8.304885724037547e-08 0.9999999999999958
  outer loop
    vertex 67.50000642599599 35.99999988331879 37.999993817337945
    vertex 31.000000652289618 31.000000168616047 38.0000000760529
    vertex 40.00000065148843 31.000000168616047 38.000000027926326
  endloop
endfacet
facet normal 4.3806206575067914e-08 8.304885724037547e-08 0.9999999999999958
  outer loop
    vertex 67.50000642599599 35.99999988331879 37.999993817337945
    vertex 40.00000065148843 31.000000168616047 38.000000027926326
    vertex 52.50000008813658 26.000001416867978 38.000000032438265
  endloop
endfacet
facet normal 4.3806206575067914e-08 8.304885724037547e-08 0.9999999999999958
  outer loop
    vertex 52.50000008813658 26.000001416867978 38.000000032438265
    vertex 40.00000065148843 31.000000168616047 38.000000027926326
    vertex 41.50000008813658 16.000001416995943 38.00000006350627
  endloop
endfacet
facet normal 4.3806206575067914e-08 8.304885724037547e-08 0.9999999999999958
  outer loop
    vertex 41.50000008813658 16.000001416995943 38.00000006350627
    vertex 40.00000065148843 31.000000168616047 38.000000027926326
    vertex 41.50000008813658 6.50000141686798 38.00000007651262
  endloop
endfacet
facet normal 4.3806206575067914e-08 8.304885724037547e-08 0.9999999999999958
  outer loop
    vertex 41.50000008813658 16.000001416995943 38.00000006350627
    vertex 41.50000008813658 6.50000141686798 38.00000007651262
    vertex 41.50000008813658 11.000001416867981 38.00000006908559
  endloop
endfacet
facet normal 4.3806206575067914e-08 8.304885724037547e-08 0.9999999999999958
  outer loop
    vertex 41.50000008813658 16.000001416995943 38.00000006350627
    vertex 41.50000008813658 11.000001416867981 38.00000006908559
    vertex 41.50000008813658 11.500001416867983 38.000000070933304
  endloop
endfacet
facet normal 4.3806206575067914e-08 8.304885724037547e-08 0.9999999999999958
  outer loop
    vertex 52.50000008813658 26.000001416867978 38.000000032438265
    vertex 41.50000008813658 16.000001416995943 38.00000006350627
    vertex 51.50000008813658 16.000001416995943 38.000000065667386
  endloop
endfacet
facet normal 4.3806206575067914e-08 8.304885724037547e-08 0.9999999999999958
  outer loop
    vertex 52.50000008813658 26.000001416867978 38.000000032438265
    vertex 51.50000008813658 16.000001416995943 38.000000065667386
    vertex 52.50000008813658 6.50000141686798 38.00000007651262
  endloop
endfacet
facet normal 4.3806206575067914e-08 8.304885724037547e-08 0.9999999999999958
  outer loop
    vertex 52.50000008813658 26.000001416867978 38.000000032438265
    vertex 52.50000008813658 6.50000141686798 38.00000007651262
    vertex 52.50000008813658 11.000001416867981 38.00000006908559
  endloop
endfacet
facet normal 4.3806206575067914e-08 8.304885724037547e-08 0.9999999999999958
  outer loop
    vertex 52.50000008813658 26.000001416867978 38.000000032438265
    vertex 52.50000008813658 11.000001416867981 38.00000006908559
    vertex 52.50000008813658 11.500001416867983 38.000000070933304
  endloop
endfacet
facet normal 4.3806206575067914e-08 8.304885724037547e-08 0.9999999999999958
  outer loop
    vertex 52.50000008813658 26.000001416867978 38.000000032438265
    vertex 52.50000008813658 11.500001416867983 38.000000070933304
    vertex 52.50000008813658 16.000001416995946 38.00000006350628
  endloop
endfacet
facet normal 4.3806206575067914e-08 8.304885724037547e-08 0.9999999999999958
  outer loop
    vertex 52.50000008813658 26.000001416867978 38.000000032438265
    vertex 52.50000008813658 16.000001416995946 38.00000006350628
    vertex 52.50000008813658 16.500001416867978 38.00000005531325
  endloop
endfacet
facet normal 4.3806206575067914e-08 8.304885724037547e-08 0.9999999999999958
  outer loop
    vertex 52.50000008813658 26.000001416867978 38.000000032438265
    vertex 52.50000008813658 16.500001416867978 38.00000005531325
    vertex 52.50000008813658 21.000001417059927 38.00000004795018
  endloop
endfacet
facet normal 4.3806206575067914e-08 8.304885724037547e-08 0.9999999999999958
  outer loop
    vertex 52.50000008813658 26.000001416867978 38.000000032438265
    vertex 52.50000008813658 21.000001417059927 38.00000004795018
    vertex 52.50000008813658 21.500001416867985 38.00000003976933
  endloop
endfacet
facet normal 4.3806206575067914e-08 8.304885724037547e-08 0.9999999999999958
  outer loop
    vertex 67.50000642599599 35.99999988331879 37.999993817337945
    vertex 52.50000008813658 26.000001416867978 38.000000032438265
    vertex 62.500000088136574 26.000001416867978 38.0000000362202
  endloop
endfacet
facet normal 4.3806206575067914e-08 8.304885724037547e-08 0.9999999999999958
  outer loop
    vertex 67.50000642599599 35.99999988331879 37.999993817337945
    vertex 62.500000088136574 26.000001416867978 38.0000000362202
    vertex 67.50000008813657 1.4168679812849757e-06 38.000000084027334
  endloop
endfacet
facet normal 4.3806206575067914e-08 8.304885724037547e-08 0.9999999999999958
  outer loop
    vertex 62.500000088136574 21.000001417059927 38.00000005119186
    vertex 52.50000008813658 21.500001416867985 38.00000003976933
    vertex 52.50000008813658 21.000001417059927 38.00000004795018
  endloop
endfacet
facet normal 4.3806206575067914e-08 8.304885724037547e-08 0.9999999999999958
  outer loop
    vertex 52.50000008813658 21.500001416867985 38.00000003976933
    vertex 62.500000088136574 21.000001417059927 38.00000005119186
    vertex 62.500000088136574 21.500001416867985 38.00000003996838
  endloop
endfacet
facet normal 4.3806206575067914e-08 8.304885724037547e-08 0.9999999999999958
  outer loop
    vertex 62.500000088136574 16.000001416995946 38.00000006566739
    vertex 52.50000008813658 16.500001416867978 38.00000005531325
    vertex 52.50000008813658 16.000001416995946 38.00000006350628
  endloop
endfacet
facet normal 4.3806206575067914e-08 8.304885724037547e-08 0.9999999999999958
  outer loop
    vertex 52.50000008813658 16.500001416867978 38.00000005531325
    vertex 62.500000088136574 16.000001416995946 38.00000006566739
    vertex 62.500000088136574 16.500001416867978 38.00000005548387
  endloop
endfacet
facet normal 4.3806206575067914e-08 8.304885724037547e-08 0.9999999999999958
  outer loop
    vertex 62.500000088136574 11.000001416867981 38.0000000712467
    vertex 52.50000008813658 11.500001416867983 38.000000070933304
    vertex 52.50000008813658 11.000001416867981 38.00000006908559
  endloop
endfacet
facet normal 4.3806206575067914e-08 8.304885724037547e-08 0.9999999999999958
  outer loop
    vertex 52.50000008813658 11.500001416867983 38.000000070933304
    vertex 62.500000088136574 11.000001416867981 38.0000000712467
    vertex 62.500000088136574 11.500001416867983 38.000000071047054
  endloop
endfacet
facet normal 4.3806206575067914e-08 8.304885724037547e-08 0.9999999999999958
  outer loop
    vertex 51.50000008813658 11.000001416867981 38.0000000712467
    vertex 41.50000008813658 11.500001416867983 38.000000070933304
    vertex 41.50000008813658 11.000001416867981 38.00000006908559
  endloop
endfacet
facet normal 4.3806206575067914e-08 8.304885724037547e-08 0.9999999999999958
  outer loop
    vertex 41.50000008813658 11.500001416867983 38.000000070933304
    vertex 51.50000008813658 11.000001416867981 38.0000000712467
    vertex 51.50000008813658 11.500001416867983 38.000000071047054
  endloop
endfacet
facet normal 4.3806206575067914e-08 8.304885724037547e-08 0.9999999999999958
  outer loop
    vertex 19.50000065148843 14.000000792742012 38.00000006618615
    vertex 12.500000651488437 21.000000792960016 38.00000006635274
    vertex 12.500000651488437 14.000000792742012 38.00000008050051
  endloop
endfacet
facet normal 4.3806206575067914e-08 8.304885724037547e-08 0.9999999999999958
  outer loop
    vertex 12.500000651488437 21.000000792960016 38.00000006635274
    vertex 19.50000065148843 14.000000792742012 38.00000006618615
    vertex 19.50000065148843 21.000000792960016 38.00000006235306
  endloop
endfacet
facet normal 4.3806206575067914e-08 8.304885724037547e-08 0.9999999999999958
  outer loop
    vertex 9.500000651488435 14.000000792742012 38.00000006678541
    vertex 2.5000006514884334 21.000000792742018 38.00000006873369
    vertex 2.5000006514884316 14.000000792742012 38.00000009408363
  endloop
endfacet
facet normal 4.3806206575067914e-08 8.304885724037547e-08 0.9999999999999958
  outer loop
    vertex 2.5000006514884334 21.000000792742018 38.00000006873369
    vertex 9.500000651488435 14.000000792742012 38.00000006678541
    vertex 9.500000651488435 21.000000792742018 38.00000006480726
  endloop
endfacet
facet normal 6.665931581164691e-09 0.9999999999999998 -2.2741519380912935e-08
  outer loop
    vertex -3.499999912387581 36.000000176290825 38.000000182606016
    vertex -1.9999999999999822 36.000000031141944 31.00000029308254
    vertex -3.4999999999999942 36.00000006228388 31.000000182605998
  endloop
endfacet
facet normal 6.665931581164691e-09 0.9999999999999998 -2.2741519380912935e-08
  outer loop
    vertex -1.9999999999999822 36.000000031141944 31.00000029308254
    vertex -3.499999912387581 36.000000176290825 38.000000182606016
    vertex -1.9999994366481304 36.000000002916444 34.500000157651286
  endloop
endfacet
facet normal 6.665931581164691e-09 0.9999999999999998 -2.2741519380912935e-08
  outer loop
    vertex -1.9999994366481304 36.000000002916444 34.500000157651286
    vertex -3.499999912387581 36.000000176290825 38.000000182606016
    vertex 67.50000642599599 35.99999988331879 37.999993817337945
  endloop
endfacet
facet normal 6.665931581164691e-09 0.9999999999999998 -2.2741519380912935e-08
  outer loop
    vertex 64.31250495590926 35.99999962837974 30.999994105129453
    vertex 67.50000633838359 35.999999193425715 34.15726461387124
    vertex 65.97775084203539 35.99999933175692 30.999993954778613
  endloop
endfacet
facet normal 6.665931581164691e-09 0.9999999999999998 -2.2741519380912935e-08
  outer loop
    vertex 67.50000633838359 35.999999193425715 34.15726461387124
    vertex 64.31250495590926 35.99999962837974 30.999994105129453
    vertex 66.0 36.0 34.50000000000001
  endloop
endfacet
facet normal 6.665931581164691e-09 0.9999999999999998 -2.2741519380912935e-08
  outer loop
    vertex 67.50000633838359 35.999999193425715 34.15726461387124
    vertex 66.0 36.0 34.50000000000001
    vertex 67.50000642599599 35.99999988331879 37.999993817337945
  endloop
endfacet
facet normal 6.665931581164691e-09 0.9999999999999998 -2.2741519380912935e-08
  outer loop
    vertex 67.50000642599599 35.99999988331879 37.999993817337945
    vertex 66.0 36.0 34.50000000000001
    vertex -1.9999994366481304 36.000000002916444 34.500000157651286
  endloop
endfacet
facet normal -9.028757041238493e-08 -5.608197798133952e-07 -0.9999999999998388
  outer loop
    vertex 64.31250495590926 35.99999962837974 30.999994105129453
    vertex 65.97774422849317 2.8974240130735794e-06 31.000014144289285
    vertex 64.31249834236704 3.1940468348451433e-06 31.000014294640124
  endloop
endfacet
facet normal -9.028757041238493e-08 -5.608197798133952e-07 -0.9999999999998388
  outer loop
    vertex 65.97774422849317 2.8974240130735794e-06 31.000014144289285
    vertex 64.31250495590926 35.99999962837974 30.999994105129453
    vertex 65.97775084203539 35.99999933175692 30.999993954778613
  endloop
endfacet
facet normal -1.0 4.387355705796696e-18 1.5793015487967475e-09
  outer loop
    vertex 29.50000065148843 21.000000792742018 38.00000006213899
    vertex 29.500000562206274 29.50000000371181 36.50000003852569
    vertex 29.500000562206274 21.00000062783777 36.50000006213899
  endloop
endfacet
facet normal -1.0 4.387355705796696e-18 1.5793015487967475e-09
  outer loop
    vertex 29.500000562206274 29.50000000371181 36.50000003852569
    vertex 29.50000065148843 21.000000792742018 38.00000006213899
    vertex 29.50000065148843 29.50000016861605 38.000000038525684
  endloop
endfacet
facet normal -6.916049739640944e-10 -8.394419825918945e-10 -1.0
  outer loop
    vertex 66.0 36.0 34.50000000000001
    vertex -1.9999994366481302 34.50000000291645 34.50000015841904
    vertex -1.9999994366481304 36.000000002916444 34.500000157651286
  endloop
endfacet
facet normal -6.916049739640944e-10 -8.394419825918945e-10 -1.0
  outer loop
    vertex -1.9999994366481302 34.50000000291645 34.50000015841904
    vertex 66.0 36.0 34.50000000000001
    vertex 66.0 34.50000000000001 34.50000000175057
  endloop
endfacet
facet normal -7.438319651979207e-12 -8.576928056669433e-10 -1.0
  outer loop
    vertex -1.9999994366481302 1.5000012511683776 34.50000019371943
    vertex 66.0 1.2482519347767007e-06 34.50000008402734
    vertex -1.9999994366481304 1.251168377964555e-06 34.50000019450388
  endloop
endfacet
facet normal -7.438319651979207e-12 -8.576928056669433e-10 -1.0
  outer loop
    vertex 66.0 1.2482519347767007e-06 34.50000008402734
    vertex -1.9999994366481302 1.5000012511683776 34.50000019371943
    vertex 66.0 1.5000012482519347 34.500000082238714
  endloop
endfacet
facet normal -3.4960077297933337e-10 -1.754371714315653e-09 -1.0
  outer loop
    vertex 2.5000005621393537 14.000000627784237 36.50000009408363
    vertex 2.5000005625707247 21.000000628129335 36.5000000687337
    vertex 9.500000562139357 14.000000627784237 36.50000006678541
  endloop
endfacet
facet normal -3.4960077297933337e-10 -1.754371714315653e-09 -1.0
  outer loop
    vertex 2.5000005625707247 21.000000628129335 36.5000000687337
    vertex 2.5000005621393537 14.000000627784237 36.50000009408363
    vertex 2.5000005625707247 29.500000004003372 36.500000067549436
  endloop
endfacet
facet normal -3.4960077297933337e-10 -1.754371714315653e-09 -1.0
  outer loop
    vertex 9.500000562139357 14.000000627784237 36.50000006678541
    vertex 2.5000005625707247 21.000000628129335 36.5000000687337
    vertex 9.500000562570728 21.000000628129335 36.50000006480727
  endloop
endfacet
facet normal -3.4960077297933337e-10 -1.754371714315653e-09 -1.0
  outer loop
    vertex 9.500000562139357 14.000000627784237 36.50000006678541
    vertex 9.500000562570728 21.000000628129335 36.50000006480727
    vertex 9.500000562139357 5.500001251910206 36.500000091255195
  endloop
endfacet
facet normal -3.4960077297933337e-10 -1.754371714315653e-09 -1.0
  outer loop
    vertex 51.500000001162384 11.5000012520166 36.500000071047054
    vertex 41.50000000116239 11.000001252016599 36.50000006908559
    vertex 41.50000000116239 11.5000012520166 36.50000007093331
  endloop
endfacet
facet normal -3.4960077297933337e-10 -1.754371714315653e-09 -1.0
  outer loop
    vertex 41.50000000116239 11.000001252016599 36.50000006908559
    vertex 51.500000001162384 11.5000012520166 36.500000071047054
    vertex 51.500000001162384 11.000001252016599 36.5000000712467
  endloop
endfacet
facet normal -3.4960077297933337e-10 -1.754371714315653e-09 -1.0
  outer loop
    vertex 19.50000056249747 21.000000628288735 36.50000006235307
    vertex 12.500000563138116 14.000000628583244 36.50000008050051
    vertex 12.500000562497473 21.000000628288735 36.50000006635275
  endloop
endfacet
facet normal -3.4960077297933337e-10 -1.754371714315653e-09 -1.0
  outer loop
    vertex 12.500000563138116 14.000000628583244 36.50000008050051
    vertex 19.50000056249747 21.000000628288735 36.50000006235307
    vertex 19.500000563138112 14.000000628583244 36.50000006618616
  endloop
endfacet
facet normal -3.4960077297933337e-10 -1.754371714315653e-09 -1.0
  outer loop
    vertex 52.500000001162384 16.000001252144568 36.50000006350628
    vertex 52.500000001219256 16.50000125214456 36.50000005531325
    vertex 62.50000000116238 16.000001252144568 36.50000006566739
  endloop
endfacet
facet normal -3.4960077297933337e-10 -1.754371714315653e-09 -1.0
  outer loop
    vertex 52.500000001219256 16.50000125214456 36.50000005531325
    vertex 52.500000001162384 16.000001252144568 36.50000006350628
    vertex 52.500000001219256 21.000001252336506 36.50000004795019
  endloop
endfacet
facet normal -3.4960077297933337e-10 -1.754371714315653e-09 -1.0
  outer loop
    vertex 62.50000000116238 16.000001252144568 36.50000006566739
    vertex 52.500000001219256 16.50000125214456 36.50000005531325
    vertex 62.50000000121925 16.50000125214456 36.50000005548387
  endloop
endfacet
facet normal -3.4960077297933337e-10 -1.754371714315653e-09 -1.0
  outer loop
    vertex 62.50000000116238 16.000001252144568 36.50000006566739
    vertex 62.50000000121925 16.50000125214456 36.50000005548387
    vertex 62.50000000116238 11.5000012520166 36.500000071047054
  endloop
endfacet
facet normal -3.4960077297933337e-10 -1.754371714315653e-09 -1.0
  outer loop
    vertex 62.50000000116238 11.5000012520166 36.500000071047054
    vertex 62.50000000121925 16.50000125214456 36.50000005548387
    vertex 62.50000000116238 11.000001252016599 36.5000000712467
  endloop
endfacet
facet normal -3.4960077297933337e-10 -1.754371714315653e-09 -1.0
  outer loop
    vertex 62.50000000116238 11.000001252016599 36.5000000712467
    vertex 62.50000000121925 16.50000125214456 36.50000005548387
    vertex 62.50000000116238 6.500001252016599 36.50000007662637
  endloop
endfacet
facet normal -3.4960077297933337e-10 -1.754371714315653e-09 -1.0
  outer loop
    vertex 52.500000001219256 21.000001252336506 36.50000004795019
    vertex 52.500000001247685 21.50000125220854 36.50000003976933
    vertex 62.50000000121925 21.000001252336506 36.50000005119186
  endloop
endfacet
facet normal -3.4960077297933337e-10 -1.754371714315653e-09 -1.0
  outer loop
    vertex 52.500000001247685 21.50000125220854 36.50000003976933
    vertex 52.500000001219256 21.000001252336506 36.50000004795019
    vertex 52.500000001247685 26.000001252208545 36.500000032438265
  endloop
endfacet
facet normal -3.4960077297933337e-10 -1.754371714315653e-09 -1.0
  outer loop
    vertex 62.50000000121925 21.000001252336506 36.50000005119186
    vertex 52.500000001247685 21.50000125220854 36.50000003976933
    vertex 62.50000000124768 21.50000125220854 36.50000003996838
  endloop
endfacet
facet normal -3.4960077297933337e-10 -1.754371714315653e-09 -1.0
  outer loop
    vertex 62.50000000121925 21.000001252336506 36.50000005119186
    vertex 62.50000000124768 21.50000125220854 36.50000003996838
    vertex 62.50000000121925 16.50000125214456 36.50000005548387
  endloop
endfacet
facet normal -3.4960077297933337e-10 -1.754371714315653e-09 -1.0
  outer loop
    vertex -1.9999994359489286 34.500000006425196 36.50000015841904
    vertex 2.5000005625707247 29.500000004003372 36.500000067549436
    vertex -1.9999994359489286 1.5000012546771209 36.50000019371942
  endloop
endfacet
facet normal -3.4960077297933337e-10 -1.754371714315653e-09 -1.0
  outer loop
    vertex 2.5000005625707247 29.500000004003372 36.500000067549436
    vertex -1.9999994359489286 34.500000006425196 36.50000015841904
    vertex 66.0000000006992 34.50000000350875 36.50000000175057
  endloop
endfacet
facet normal -3.4960077297933337e-10 -1.754371714315653e-09 -1.0
  outer loop
    vertex -1.9999994359489286 1.5000012546771209 36.50000019371942
    vertex 2.5000005625707247 29.500000004003372 36.500000067549436
    vertex 2.5000005621393537 14.000000627784237 36.50000009408363
  endloop
endfacet
facet normal -3.4960077297933337e-10 -1.754371714315653e-09 -1.0
  outer loop
    vertex 2.5000005625707247 29.500000004003372 36.500000067549436
    vertex 66.0000000006992 34.50000000350875 36.50000000175057
    vertex 9.500000562570728 29.500000004003372 36.50000004585901
  endloop
endfacet
facet normal -3.4960077297933337e-10 -1.754371714315653e-09 -1.0
  outer loop
    vertex 9.500000562570728 29.500000004003372 36.50000004585901
    vertex 66.0000000006992 34.50000000350875 36.50000000175057
    vertex 12.500000562497473 29.500000003944773 36.500000065109866
  endloop
endfacet
facet normal -3.4960077297933337e-10 -1.754371714315653e-09 -1.0
  outer loop
    vertex 9.500000562570728 29.500000004003372 36.50000004585901
    vertex 12.500000562497473 29.500000003944773 36.500000065109866
    vertex 9.500000562570728 21.000000628129335 36.50000006480727
  endloop
endfacet
facet normal -3.4960077297933337e-10 -1.754371714315653e-09 -1.0
  outer loop
    vertex 12.500000562497473 29.500000003944773 36.500000065109866
    vertex 66.0000000006992 34.50000000350875 36.50000000175057
    vertex 31.00000056220627 31.00000000428688 36.5000000760529
  endloop
endfacet
facet normal -3.4960077297933337e-10 -1.754371714315653e-09 -1.0
  outer loop
    vertex 12.500000562497473 29.500000003944773 36.500000065109866
    vertex 31.00000056220627 31.00000000428688 36.5000000760529
    vertex 19.50000056249747 29.500000003944773 36.50000004246715
  endloop
endfacet
facet normal -3.4960077297933337e-10 -1.754371714315653e-09 -1.0
  outer loop
    vertex 19.50000056249747 29.500000003944773 36.50000004246715
    vertex 31.00000056220627 31.00000000428688 36.5000000760529
    vertex 22.50000056220627 29.50000000371181 36.50000006587643
  endloop
endfacet
facet normal -3.4960077297933337e-10 -1.754371714315653e-09 -1.0
  outer loop
    vertex 19.50000056249747 29.500000003944773 36.50000004246715
    vertex 22.50000056220627 29.50000000371181 36.50000006587643
    vertex 19.50000056249747 21.000000628288735 36.50000006235307
  endloop
endfacet
facet normal -3.4960077297933337e-10 -1.754371714315653e-09 -1.0
  outer loop
    vertex 19.50000056249747 21.000000628288735 36.50000006235307
    vertex 22.50000056220627 29.50000000371181 36.50000006587643
    vertex 19.500000563138112 14.000000628583244 36.50000006618616
  endloop
endfacet
facet normal -3.4960077297933337e-10 -1.754371714315653e-09 -1.0
  outer loop
    vertex 19.500000563138112 14.000000628583244 36.50000006618616
    vertex 22.50000056220627 29.50000000371181 36.50000006587643
    vertex 19.500000563138112 5.500001252709212 36.50000007787182
  endloop
endfacet
facet normal -3.4960077297933337e-10 -1.754371714315653e-09 -1.0
  outer loop
    vertex 22.50000056220627 29.50000000371181 36.50000006587643
    vertex 31.00000056220627 31.00000000428688 36.5000000760529
    vertex 29.500000562206274 29.50000000371181 36.50000003852569
  endloop
endfacet
facet normal -3.4960077297933337e-10 -1.754371714315653e-09 -1.0
  outer loop
    vertex 29.500000562206274 29.50000000371181 36.50000003852569
    vertex 31.00000056220627 31.00000000428688 36.5000000760529
    vertex 29.500000562206274 21.00000062783777 36.50000006213899
  endloop
endfacet
facet normal -3.4960077297933337e-10 -1.754371714315653e-09 -1.0
  outer loop
    vertex 31.00000056220627 31.00000000428688 36.5000000760529
    vertex 66.0000000006992 34.50000000350875 36.50000000175057
    vertex 40.00000056140508 31.00000000428688 36.500000027926326
  endloop
endfacet
facet normal -3.4960077297933337e-10 -1.754371714315653e-09 -1.0
  outer loop
    vertex 40.00000056140508 31.00000000428688 36.500000027926326
    vertex 66.0000000006992 34.50000000350875 36.50000000175057
    vertex 52.500000001247685 26.000001252208545 36.500000032438265
  endloop
endfacet
facet normal -3.4960077297933337e-10 -1.754371714315653e-09 -1.0
  outer loop
    vertex 40.00000056140508 31.00000000428688 36.500000027926326
    vertex 52.500000001247685 26.000001252208545 36.500000032438265
    vertex 41.50000000116239 16.000001252144564 36.50000006350627
  endloop
endfacet
facet normal -3.4960077297933337e-10 -1.754371714315653e-09 -1.0
  outer loop
    vertex 40.00000056140508 31.00000000428688 36.500000027926326
    vertex 41.50000000116239 16.000001252144564 36.50000006350627
    vertex 40.00000056140508 6.500001252538807 36.5000000711627
  endloop
endfacet
facet normal -3.4960077297933337e-10 -1.754371714315653e-09 -1.0
  outer loop
    vertex 41.50000000116239 16.000001252144564 36.50000006350627
    vertex 52.500000001247685 26.000001252208545 36.500000032438265
    vertex 51.500000001162384 16.000001252144564 36.500000065667386
  endloop
endfacet
facet normal -3.4960077297933337e-10 -1.754371714315653e-09 -1.0
  outer loop
    vertex 51.500000001162384 16.000001252144564 36.500000065667386
    vertex 52.500000001247685 26.000001252208545 36.500000032438265
    vertex 51.500000001162384 11.5000012520166 36.500000071047054
  endloop
endfacet
facet normal -3.4960077297933337e-10 -1.754371714315653e-09 -1.0
  outer loop
    vertex 51.500000001162384 11.5000012520166 36.500000071047054
    vertex 52.500000001247685 26.000001252208545 36.500000032438265
    vertex 51.500000001162384 11.000001252016599 36.5000000712467
  endloop
endfacet
facet normal -3.4960077297933337e-10 -1.754371714315653e-09 -1.0
  outer loop
    vertex 51.500000001162384 11.000001252016599 36.5000000712467
    vertex 52.500000001247685 26.000001252208545 36.500000032438265
    vertex 51.500000001162384 6.500001252016599 36.50000007662637
  endloop
endfacet
facet normal -3.4960077297933337e-10 -1.754371714315653e-09 -1.0
  outer loop
    vertex 51.500000001162384 6.500001252016599 36.50000007662637
    vertex 52.500000001247685 26.000001252208545 36.500000032438265
    vertex 52.500000001162384 16.000001252144568 36.50000006350628
  endloop
endfacet
facet normal -3.4960077297933337e-10 -1.754371714315653e-09 -1.0
  outer loop
    vertex 52.500000001162384 16.000001252144568 36.50000006350628
    vertex 52.500000001247685 26.000001252208545 36.500000032438265
    vertex 52.500000001219256 21.000001252336506 36.50000004795019
  endloop
endfacet
facet normal -3.4960077297933337e-10 -1.754371714315653e-09 -1.0
  outer loop
    vertex 52.500000001247685 26.000001252208545 36.500000032438265
    vertex 66.0000000006992 34.50000000350875 36.50000000175057
    vertex 62.50000000124768 26.000001252208545 36.5000000362202
  endloop
endfacet
facet normal -3.4960077297933337e-10 -1.754371714315653e-09 -1.0
  outer loop
    vertex 62.50000000124768 26.000001252208545 36.5000000362202
    vertex 66.0000000006992 34.50000000350875 36.50000000175057
    vertex 62.50000000124768 21.50000125220854 36.50000003996838
  endloop
endfacet
facet normal -3.4960077297933337e-10 -1.754371714315653e-09 -1.0
  outer loop
    vertex -1.9999994359489286 1.5000012546771209 36.50000019371942
    vertex 2.5000005621393537 5.500001251910206 36.50000009561299
    vertex 66.0000000006992 1.500001251760678 36.500000082238714
  endloop
endfacet
facet normal -3.4960077297933337e-10 -1.754371714315653e-09 -1.0
  outer loop
    vertex 2.5000005621393537 5.500001251910206 36.50000009561299
    vertex -1.9999994359489286 1.5000012546771209 36.50000019371942
    vertex 2.5000005621393537 14.000000627784237 36.50000009408363
  endloop
endfacet
facet normal -3.4960077297933337e-10 -1.754371714315653e-09 -1.0
  outer loop
    vertex 66.0000000006992 1.500001251760678 36.500000082238714
    vertex 2.5000005621393537 5.500001251910206 36.50000009561299
    vertex 9.500000562139357 5.500001251910206 36.500000091255195
  endloop
endfacet
facet normal -3.4960077297933337e-10 -1.754371714315653e-09 -1.0
  outer loop
    vertex 66.0000000006992 1.500001251760678 36.500000082238714
    vertex 9.500000562139357 5.500001251910206 36.500000091255195
    vertex 12.500000563138116 5.500001252709212 36.50000008123086
  endloop
endfacet
facet normal -3.4960077297933337e-10 -1.754371714315653e-09 -1.0
  outer loop
    vertex 12.500000563138116 5.500001252709212 36.50000008123086
    vertex 9.500000562139357 5.500001251910206 36.500000091255195
    vertex 9.500000562570728 21.000000628129335 36.50000006480727
  endloop
endfacet
facet normal -3.4960077297933337e-10 -1.754371714315653e-09 -1.0
  outer loop
    vertex 12.500000563138116 5.500001252709212 36.50000008123086
    vertex 9.500000562570728 21.000000628129335 36.50000006480727
    vertex 12.500000562497473 21.000000628288735 36.50000006635275
  endloop
endfacet
facet normal -3.4960077297933337e-10 -1.754371714315653e-09 -1.0
  outer loop
    vertex 12.500000562497473 21.000000628288735 36.50000006635275
    vertex 9.500000562570728 21.000000628129335 36.50000006480727
    vertex 12.500000562497473 29.500000003944773 36.500000065109866
  endloop
endfacet
facet normal -3.4960077297933337e-10 -1.754371714315653e-09 -1.0
  outer loop
    vertex 12.500000563138116 5.500001252709212 36.50000008123086
    vertex 12.500000562497473 21.000000628288735 36.50000006635275
    vertex 12.500000563138116 14.000000628583244 36.50000008050051
  endloop
endfacet
facet normal -3.4960077297933337e-10 -1.754371714315653e-09 -1.0
  outer loop
    vertex 66.0000000006992 1.500001251760678 36.500000082238714
    vertex 12.500000563138116 5.500001252709212 36.50000008123086
    vertex 19.500000563138112 5.500001252709212 36.50000007787182
  endloop
endfacet
facet normal -3.4960077297933337e-10 -1.754371714315653e-09 -1.0
  outer loop
    vertex 66.0000000006992 1.500001251760678 36.500000082238714
    vertex 19.500000563138112 5.500001252709212 36.50000007787182
    vertex 31.00000056220627 6.500001252538807 36.500000076953654
  endloop
endfacet
facet normal -3.4960077297933337e-10 -1.754371714315653e-09 -1.0
  outer loop
    vertex 31.00000056220627 6.500001252538807 36.500000076953654
    vertex 19.500000563138112 5.500001252709212 36.50000007787182
    vertex 22.50000056220627 21.00000062783777 36.50000006735227
  endloop
endfacet
facet normal -3.4960077297933337e-10 -1.754371714315653e-09 -1.0
  outer loop
    vertex 22.50000056220627 21.00000062783777 36.50000006735227
    vertex 19.500000563138112 5.500001252709212 36.50000007787182
    vertex 22.50000056220627 29.50000000371181 36.50000006587643
  endloop
endfacet
facet normal -3.4960077297933337e-10 -1.754371714315653e-09 -1.0
  outer loop
    vertex 31.00000056220627 6.500001252538807 36.500000076953654
    vertex 22.50000056220627 21.00000062783777 36.50000006735227
    vertex 29.500000562206274 21.00000062783777 36.50000006213899
  endloop
endfacet
facet normal -3.4960077297933337e-10 -1.754371714315653e-09 -1.0
  outer loop
    vertex 31.00000056220627 6.500001252538807 36.500000076953654
    vertex 29.500000562206274 21.00000062783777 36.50000006213899
    vertex 31.00000056220627 31.00000000428688 36.5000000760529
  endloop
endfacet
facet normal -3.4960077297933337e-10 -1.754371714315653e-09 -1.0
  outer loop
    vertex 66.0000000006992 1.500001251760678 36.500000082238714
    vertex 31.00000056220627 6.500001252538807 36.500000076953654
    vertex 40.00000056140508 6.500001252538807 36.5000000711627
  endloop
endfacet
facet normal -3.4960077297933337e-10 -1.754371714315653e-09 -1.0
  outer loop
    vertex 66.0000000006992 1.500001251760678 36.500000082238714
    vertex 40.00000056140508 6.500001252538807 36.5000000711627
    vertex 41.50000000116239 6.500001252016599 36.50000007651262
  endloop
endfacet
facet normal -3.4960077297933337e-10 -1.754371714315653e-09 -1.0
  outer loop
    vertex 41.50000000116239 6.500001252016599 36.50000007651262
    vertex 40.00000056140508 6.500001252538807 36.5000000711627
    vertex 41.50000000116239 16.000001252144564 36.50000006350627
  endloop
endfacet
facet normal -3.4960077297933337e-10 -1.754371714315653e-09 -1.0
  outer loop
    vertex 41.50000000116239 6.500001252016599 36.50000007651262
    vertex 41.50000000116239 16.000001252144564 36.50000006350627
    vertex 41.50000000116239 11.5000012520166 36.50000007093331
  endloop
endfacet
facet normal -3.4960077297933337e-10 -1.754371714315653e-09 -1.0
  outer loop
    vertex 41.50000000116239 6.500001252016599 36.50000007651262
    vertex 41.50000000116239 11.5000012520166 36.50000007093331
    vertex 41.50000000116239 11.000001252016599 36.50000006908559
  endloop
endfacet
facet normal -3.4960077297933337e-10 -1.754371714315653e-09 -1.0
  outer loop
    vertex 66.0000000006992 1.500001251760678 36.500000082238714
    vertex 41.50000000116239 6.500001252016599 36.50000007651262
    vertex 51.500000001162384 6.500001252016599 36.50000007662637
  endloop
endfacet
facet normal -3.4960077297933337e-10 -1.754371714315653e-09 -1.0
  outer loop
    vertex 66.0000000006992 1.500001251760678 36.500000082238714
    vertex 51.500000001162384 6.500001252016599 36.50000007662637
    vertex 52.500000001162384 6.500001252016599 36.50000007651262
  endloop
endfacet
facet normal -3.4960077297933337e-10 -1.754371714315653e-09 -1.0
  outer loop
    vertex 52.500000001162384 6.500001252016599 36.50000007651262
    vertex 51.500000001162384 6.500001252016599 36.50000007662637
    vertex 52.500000001162384 16.000001252144568 36.50000006350628
  endloop
endfacet
facet normal -3.4960077297933337e-10 -1.754371714315653e-09 -1.0
  outer loop
    vertex 52.500000001162384 6.500001252016599 36.50000007651262
    vertex 52.500000001162384 16.000001252144568 36.50000006350628
    vertex 52.500000001162384 11.5000012520166 36.50000007093331
  endloop
endfacet
facet normal -3.4960077297933337e-10 -1.754371714315653e-09 -1.0
  outer loop
    vertex 52.500000001162384 6.500001252016599 36.50000007651262
    vertex 52.500000001162384 11.5000012520166 36.50000007093331
    vertex 52.500000001162384 11.000001252016599 36.50000006908559
  endloop
endfacet
facet normal -3.4960077297933337e-10 -1.754371714315653e-09 -1.0
  outer loop
    vertex 66.0000000006992 1.500001251760678 36.500000082238714
    vertex 52.500000001162384 6.500001252016599 36.50000007651262
    vertex 62.50000000116238 6.500001252016599 36.50000007662637
  endloop
endfacet
facet normal -3.4960077297933337e-10 -1.754371714315653e-09 -1.0
  outer loop
    vertex 66.0000000006992 1.500001251760678 36.500000082238714
    vertex 62.50000000116238 6.500001252016599 36.50000007662637
    vertex 62.50000000121925 16.50000125214456 36.50000005548387
  endloop
endfacet
facet normal -3.4960077297933337e-10 -1.754371714315653e-09 -1.0
  outer loop
    vertex 66.0000000006992 1.500001251760678 36.500000082238714
    vertex 62.50000000121925 16.50000125214456 36.50000005548387
    vertex 62.50000000124768 21.50000125220854 36.50000003996838
  endloop
endfacet
facet normal -3.4960077297933337e-10 -1.754371714315653e-09 -1.0
  outer loop
    vertex 66.0000000006992 1.500001251760678 36.500000082238714
    vertex 62.50000000124768 21.50000125220854 36.50000003996838
    vertex 66.0000000006992 34.50000000350875 36.50000000175057
  endloop
endfacet
facet normal -3.4960077297933337e-10 -1.754371714315653e-09 -1.0
  outer loop
    vertex 62.50000000116238 11.5000012520166 36.500000071047054
    vertex 52.500000001162384 11.000001252016599 36.50000006908559
    vertex 52.500000001162384 11.5000012520166 36.50000007093331
  endloop
endfacet
facet normal -3.4960077297933337e-10 -1.754371714315653e-09 -1.0
  outer loop
    vertex 52.500000001162384 11.000001252016599 36.50000006908559
    vertex 62.50000000116238 11.5000012520166 36.500000071047054
    vertex 62.50000000116238 11.000001252016599 36.5000000712467
  endloop
endfacet
facet normal -1.0 8.526884287490333e-19 3.4960077297933337e-10
  outer loop
    vertex 66.0000000006992 1.500001251760678 36.500000082238714
    vertex 66.0 34.50000000000001 34.50000000175057
    vertex 66.0 1.5000012482519347 34.500000082238714
  endloop
endfacet
facet normal -1.0 8.526884287490333e-19 3.4960077297933337e-10
  outer loop
    vertex 66.0 34.50000000000001 34.50000000175057
    vertex 66.0000000006992 1.500001251760678 36.500000082238714
    vertex 66.0000000006992 34.50000000350875 36.50000000175057
  endloop
endfacet
facet normal -2.6371792534241326e-18 1.0 -1.7543717143156531e-09
  outer loop
    vertex -1.9999994366481302 1.5000012511683776 34.50000019371943
    vertex 66.0000000006992 1.500001251760678 36.500000082238714
    vertex 66.0 1.5000012482519347 34.500000082238714
  endloop
endfacet
facet normal -2.6371792534241326e-18 1.0 -1.7543717143156531e-09
  outer loop
    vertex 66.0000000006992 1.500001251760678 36.500000082238714
    vertex -1.9999994366481302 1.5000012511683776 34.50000019371943
    vertex -1.9999994359489286 1.5000012546771209 36.50000019371942
  endloop
endfacet
facet normal 1.2005602596367201e-18 -1.0 1.7543717143156531e-09
  outer loop
    vertex 66.0000000006992 34.50000000350875 36.50000000175057
    vertex -1.9999994366481302 34.50000000291645 34.50000015841904
    vertex 66.0 34.50000000000001 34.50000000175057
  endloop
endfacet
facet normal 1.2005602596367201e-18 -1.0 1.7543717143156531e-09
  outer loop
    vertex -1.9999994366481302 34.50000000291645 34.50000015841904
    vertex 66.0000000006992 34.50000000350875 36.50000000175057
    vertex -1.9999994359489286 34.500000006425196 36.50000015841904
  endloop
endfacet
facet normal 4.024165390059492e-08 0.9999999999999993 -7.3726851193871025e-09
  outer loop
    vertex -1.999999844009371 34.499999999443595 33.000000281291896
    vertex -1.499999783945635 34.499999999443595 32.500000303387246
    vertex -1.999999823594268 34.50000000750802 32.00000028129191
  endloop
endfacet
facet normal -8.064426187635518e-09 -1.0 -8.064427512767373e-09
  outer loop
    vertex -1.9999998594574115 32.50000001501308 33.00000026516304
    vertex -1.9999998390423086 32.50000002307751 32.00000026516305
    vertex -1.4999997993936756 32.50000001501308 32.500000287258395
  endloop
endfacet
facet normal -1.5649200134304763e-09 -1.0 3.7720820760234117e-17
  outer loop
    vertex -2.000000402469187 1.5000012511683798 33.00000001787635
    vertex -2.000000402469187 1.5000012511683798 32.00000001787635
    vertex -1.5000001610326696 1.5000012511683798 32.50000003997168
  endloop
endfacet
facet normal 6.294175706430433e-07 0.999999999999793 1.3382436146288882e-07
  outer loop
    vertex -2.0000001186042606 3.500001484485006 33.00000003383027
    vertex -1.5000001592531464 3.5000012511683796 32.50000003997168
    vertex -2.000000264911391 3.500001640029394 32.00000000621054
  endloop
endfacet
facet normal 0.9999999999999882 -3.1695686127168016e-09 -1.5415680892947375e-07
  outer loop
    vertex -2.0000004199678423 1.7955737552486512e-06 31.000000005910874
    vertex -1.9999994366481302 1.5000012511683776 34.50000019371943
    vertex -1.9999994366481304 1.251168377964555e-06 34.50000019450388
  endloop
endfacet
facet normal 0.9999999999999882 -3.1695686127168016e-09 -1.5415680892947375e-07
  outer loop
    vertex -1.9999994366481302 1.5000012511683776 34.50000019371943
    vertex -2.0000004199678423 1.7955737552486512e-06 31.000000005910874
    vertex -2.000000402469187 1.5000012511683798 32.00000001787635
  endloop
endfacet
facet normal 0.9999999999999882 -3.1695686127168016e-09 -1.5415680892947375e-07
  outer loop
    vertex -2.000000402469187 1.5000012511683798 32.00000001787635
    vertex -2.0000004199678423 1.7955737552486512e-06 31.000000005910874
    vertex -1.9999999999999822 36.000000031141944 31.00000029308254
  endloop
endfacet
facet normal 0.9999999999999882 -3.1695686127168016e-09 -1.5415680892947375e-07
  outer loop
    vertex -2.000000402469187 1.5000012511683798 32.00000001787635
    vertex -1.9999999999999822 36.000000031141944 31.00000029308254
    vertex -2.000000264911391 3.500001640029394 32.00000000621054
  endloop
endfacet
facet normal 0.9999999999999882 -3.1695686127168016e-09 -1.5415680892947375e-07
  outer loop
    vertex -2.000000264911391 3.500001640029394 32.00000000621054
    vertex -1.9999999999999822 36.000000031141944 31.00000029308254
    vertex -1.9999998390423086 32.50000002307751 32.00000026516305
  endloop
endfacet
facet normal 0.9999999999999882 -3.1695686127168016e-09 -1.5415680892947375e-07
  outer loop
    vertex -2.000000264911391 3.500001640029394 32.00000000621054
    vertex -1.9999998390423086 32.50000002307751 32.00000026516305
    vertex -1.9999998594574115 32.50000001501308 33.00000026516304
  endloop
endfacet
facet normal 0.9999999999999882 -3.1695686127168016e-09 -1.5415680892947375e-07
  outer loop
    vertex -1.9999998390423086 32.50000002307751 32.00000026516305
    vertex -1.9999999999999822 36.000000031141944 31.00000029308254
    vertex -1.999999823594268 34.50000000750802 32.00000028129191
  endloop
endfacet
facet normal 0.9999999999999882 -3.1695686127168016e-09 -1.5415680892947375e-07
  outer loop
    vertex -1.999999823594268 34.50000000750802 32.00000028129191
    vertex -1.9999999999999822 36.000000031141944 31.00000029308254
    vertex -1.9999994366481304 36.000000002916444 34.500000157651286
  endloop
endfacet
facet normal 0.9999999999999882 -3.1695686127168016e-09 -1.5415680892947375e-07
  outer loop
    vertex -1.999999823594268 34.50000000750802 32.00000028129191
    vertex -1.9999994366481302 34.50000000291645 34.50000015841904
    vertex -1.999999844009371 34.499999999443595 33.000000281291896
  endloop
endfacet
facet normal 0.9999999999999882 -3.1695686127168016e-09 -1.5415680892947375e-07
  outer loop
    vertex -1.9999994366481302 34.50000000291645 34.50000015841904
    vertex -1.999999823594268 34.50000000750802 32.00000028129191
    vertex -1.9999994366481304 36.000000002916444 34.500000157651286
  endloop
endfacet
facet normal 0.9999999999999882 -3.1695686127168016e-09 -1.5415680892947375e-07
  outer loop
    vertex -1.9999994366481302 1.5000012511683776 34.50000019371943
    vertex -2.000000402469187 1.5000012511683798 33.00000001787635
    vertex -1.9999994359489286 1.5000012546771209 36.50000019371942
  endloop
endfacet
facet normal 0.9999999999999882 -3.1695686127168016e-09 -1.5415680892947375e-07
  outer loop
    vertex -2.000000402469187 1.5000012511683798 33.00000001787635
    vertex -1.9999994366481302 1.5000012511683776 34.50000019371943
    vertex -2.000000402469187 1.5000012511683798 32.00000001787635
  endloop
endfacet
facet normal 0.9999999999999882 -3.1695686127168016e-09 -1.5415680892947375e-07
  outer loop
    vertex -1.9999994359489286 1.5000012546771209 36.50000019371942
    vertex -2.000000402469187 1.5000012511683798 33.00000001787635
    vertex -2.0000001186042606 3.500001484485006 33.00000003383027
  endloop
endfacet
facet normal 0.9999999999999882 -3.1695686127168016e-09 -1.5415680892947375e-07
  outer loop
    vertex -1.9999994359489286 1.5000012546771209 36.50000019371942
    vertex -2.0000001186042606 3.500001484485006 33.00000003383027
    vertex -1.9999994359489286 34.500000006425196 36.50000015841904
  endloop
endfacet
facet normal 0.9999999999999882 -3.1695686127168016e-09 -1.5415680892947375e-07
  outer loop
    vertex -1.9999994359489286 34.500000006425196 36.50000015841904
    vertex -2.0000001186042606 3.500001484485006 33.00000003383027
    vertex -2.000000264911391 3.500001640029394 32.00000000621054
  endloop
endfacet
facet normal 0.9999999999999882 -3.1695686127168016e-09 -1.5415680892947375e-07
  outer loop
    vertex -1.9999994359489286 34.500000006425196 36.50000015841904
    vertex -2.000000264911391 3.500001640029394 32.00000000621054
    vertex -1.9999998594574115 32.50000001501308 33.00000026516304
  endloop
endfacet
facet normal 0.9999999999999882 -3.1695686127168016e-09 -1.5415680892947375e-07
  outer loop
    vertex -1.9999994359489286 34.500000006425196 36.50000015841904
    vertex -1.9999998594574115 32.50000001501308 33.00000026516304
    vertex -1.999999844009371 34.499999999443595 33.000000281291896
  endloop
endfacet
facet normal 0.9999999999999882 -3.1695686127168016e-09 -1.5415680892947375e-07
  outer loop
    vertex -1.9999994359489286 34.500000006425196 36.50000015841904
    vertex -1.999999844009371 34.499999999443595 33.000000281291896
    vertex -1.9999994366481302 34.50000000291645 34.50000015841904
  endloop
endfacet
facet normal 0.7071067230912991 -1.1164118629962324e-08 0.7071068392817911
  outer loop
    vertex -1.4999997993936756 32.50000001501308 32.500000287258395
    vertex -1.999999844009371 34.499999999443595 33.000000281291896
    vertex -1.9999998594574115 32.50000001501308 33.00000026516304
  endloop
endfacet
facet normal 0.7071067230912991 -1.1164118629962324e-08 0.7071068392817911
  outer loop
    vertex -1.999999844009371 34.499999999443595 33.000000281291896
    vertex -1.4999997993936756 32.50000001501308 32.500000287258395
    vertex -1.499999783945635 34.499999999443595 32.500000303387246
  endloop
endfacet
facet normal 0.7071067687744949 2.407043798304154e-10 -0.7071067935986
  outer loop
    vertex -1.999999823594268 34.50000000750802 32.00000028129191
    vertex -1.4999997993936756 32.50000001501308 32.500000287258395
    vertex -1.9999998390423086 32.50000002307751 32.00000026516305
  endloop
endfacet
facet normal 0.7071067687744949 2.407043798304154e-10 -0.7071067935986
  outer loop
    vertex -1.4999997993936756 32.50000001501308 32.500000287258395
    vertex -1.999999823594268 34.50000000750802 32.00000028129191
    vertex -1.499999783945635 34.499999999443595 32.500000303387246
  endloop
endfacet
facet normal 0.7071066925380111 -3.4125156364715466e-08 0.707106869835072
  outer loop
    vertex -1.5000001610326696 1.5000012511683798 32.50000003997168
    vertex -2.0000001186042606 3.500001484485006 33.00000003383027
    vertex -2.000000402469187 1.5000012511683798 33.00000001787635
  endloop
endfacet
facet normal 0.7071066925380111 -3.4125156364715466e-08 0.707106869835072
  outer loop
    vertex -2.0000001186042606 3.500001484485006 33.00000003383027
    vertex -1.5000001610326696 1.5000012511683798 32.50000003997168
    vertex -1.5000001592531464 3.5000012511683796 32.50000003997168
  endloop
endfacet
facet normal 0.7071066744207589 -1.720007094147266e-08 -0.7071068879523198
  outer loop
    vertex -2.000000264911391 3.500001640029394 32.00000000621054
    vertex -1.5000001610326696 1.5000012511683798 32.50000003997168
    vertex -2.000000402469187 1.5000012511683798 32.00000001787635
  endloop
endfacet
facet normal 0.7071066744207589 -1.720007094147266e-08 -0.7071068879523198
  outer loop
    vertex -1.5000001610326696 1.5000012511683798 32.50000003997168
    vertex -2.000000264911391 3.500001640029394 32.00000000621054
    vertex -1.5000001592531464 3.5000012511683796 32.50000003997168
  endloop
endfacet
endsolid Parc-Top
