solid PcbParc-Shield
facet normal -0.0 -0.0 1.0
  outer loop
    vertex 1.2000000000000002 1.1999999999999982 12.5
    vertex 2.8 20.999999999999996 12.5
    vertex 1.2000000000000002 43.8 12.5
  endloop
endfacet
facet normal -0.0 -0.0 1.0
  outer loop
    vertex 2.8 20.999999999999996 12.5
    vertex 1.2000000000000002 1.1999999999999982 12.5
    vertex 15.864000999999991 1.1999999999999988 12.5
  endloop
endfacet
facet normal -0.0 -0.0 1.0
  outer loop
    vertex 2.8 20.999999999999996 12.5
    vertex 15.864000999999991 1.1999999999999988 12.5
    vertex 4.3 20.999999999999996 12.5
  endloop
endfacet
facet normal -0.0 -0.0 1.0
  outer loop
    vertex 4.3 20.999999999999996 12.5
    vertex 15.864000999999991 1.1999999999999988 12.5
    vertex 4.3 21.999999999999996 12.500000000000002
  endloop
endfacet
facet normal -0.0 -0.0 1.0
  outer loop
    vertex 4.3 21.999999999999996 12.500000000000002
    vertex 15.864000999999991 1.1999999999999988 12.5
    vertex 4.3 22.999999999999993 12.500000000000002
  endloop
endfacet
facet normal -0.0 -0.0 1.0
  outer loop
    vertex 4.3 22.999999999999993 12.500000000000002
    vertex 15.864000999999991 1.1999999999999988 12.5
    vertex 4.3 23.999999999999996 12.5
  endloop
endfacet
facet normal -0.0 -0.0 1.0
  outer loop
    vertex 18.36400099999999 3.5999999999999996 12.5
    vertex 15.864000999999991 6.599999999999999 12.5
    vertex 15.864000999999991 3.5999999999999996 12.5
  endloop
endfacet
facet normal -0.0 -0.0 1.0
  outer loop
    vertex 15.864000999999991 6.599999999999999 12.5
    vertex 18.36400099999999 3.5999999999999996 12.5
    vertex 18.36400099999999 6.599999999999999 12.5
  endloop
endfacet
facet normal -0.0 -0.0 1.0
  outer loop
    vertex 18.36400099999999 38.39999999999999 12.5
    vertex 15.864000999999991 41.39999999999999 12.5
    vertex 15.864000999999991 38.39999999999999 12.5
  endloop
endfacet
facet normal -0.0 -0.0 1.0
  outer loop
    vertex 15.864000999999991 41.39999999999999 12.5
    vertex 18.36400099999999 38.39999999999999 12.5
    vertex 18.36400099999999 41.39999999999999 12.5
  endloop
endfacet
facet normal -0.0 -0.0 1.0
  outer loop
    vertex 1.2000000000000002 43.8 12.5
    vertex 2.8 23.999999999999996 12.5
    vertex 15.864000999999991 43.8 12.5
  endloop
endfacet
facet normal -0.0 -0.0 1.0
  outer loop
    vertex 2.8 23.999999999999996 12.5
    vertex 1.2000000000000002 43.8 12.5
    vertex 2.8 20.999999999999996 12.5
  endloop
endfacet
facet normal -0.0 -0.0 1.0
  outer loop
    vertex 2.8 23.999999999999996 12.5
    vertex 2.8 20.999999999999996 12.5
    vertex 2.8 21.999999999999996 12.500000000000002
  endloop
endfacet
facet normal -0.0 -0.0 1.0
  outer loop
    vertex 2.8 23.999999999999996 12.5
    vertex 2.8 21.999999999999996 12.500000000000002
    vertex 2.8 22.999999999999993 12.500000000000002
  endloop
endfacet
facet normal -0.0 -0.0 1.0
  outer loop
    vertex 15.864000999999991 43.8 12.5
    vertex 2.8 23.999999999999996 12.5
    vertex 4.3 23.999999999999996 12.5
  endloop
endfacet
facet normal -0.0 -0.0 1.0
  outer loop
    vertex 15.864000999999991 43.8 12.5
    vertex 4.3 23.999999999999996 12.5
    vertex 15.864000999999991 1.1999999999999988 12.5
  endloop
endfacet
facet normal -0.0 -0.0 1.0
  outer loop
    vertex 15.864000999999991 43.8 12.5
    vertex 15.864000999999991 1.1999999999999988 12.5
    vertex 15.864000999999991 3.5999999999999996 12.5
  endloop
endfacet
facet normal -0.0 -0.0 1.0
  outer loop
    vertex 15.864000999999991 43.8 12.5
    vertex 15.864000999999991 3.5999999999999996 12.5
    vertex 15.864000999999991 6.599999999999999 12.5
  endloop
endfacet
facet normal -0.0 -0.0 1.0
  outer loop
    vertex 15.864000999999991 43.8 12.5
    vertex 15.864000999999991 6.599999999999999 12.5
    vertex 15.864000999999991 38.39999999999999 12.5
  endloop
endfacet
facet normal -0.0 -0.0 1.0
  outer loop
    vertex 15.864000999999991 43.8 12.5
    vertex 15.864000999999991 38.39999999999999 12.5
    vertex 15.864000999999991 41.39999999999999 12.5
  endloop
endfacet
facet normal -0.0 -0.0 1.0
  outer loop
    vertex 4.3 21.999999999999996 12.500000000000002
    vertex 2.8 22.999999999999993 12.500000000000002
    vertex 2.8 21.999999999999996 12.500000000000002
  endloop
endfacet
facet normal -0.0 -0.0 1.0
  outer loop
    vertex 2.8 22.999999999999993 12.500000000000002
    vertex 4.3 21.999999999999996 12.500000000000002
    vertex 4.3 22.999999999999993 12.500000000000002
  endloop
endfacet
facet normal 0.0 0.0 -1.0
  outer loop
    vertex 18.36400099999999 41.39999999999999 11.0
    vertex 15.864000999999991 38.39999999999999 11.0
    vertex 15.864000999999991 41.39999999999999 11.0
  endloop
endfacet
facet normal 0.0 0.0 -1.0
  outer loop
    vertex 15.864000999999991 38.39999999999999 11.0
    vertex 18.36400099999999 41.39999999999999 11.0
    vertex 18.36400099999999 38.39999999999999 11.0
  endloop
endfacet
facet normal 0.0 0.0 -1.0
  outer loop
    vertex 18.36400099999999 6.599999999999999 11.0
    vertex 15.864000999999991 3.5999999999999996 11.0
    vertex 15.864000999999991 6.599999999999999 11.0
  endloop
endfacet
facet normal 0.0 0.0 -1.0
  outer loop
    vertex 15.864000999999991 3.5999999999999996 11.0
    vertex 18.36400099999999 6.599999999999999 11.0
    vertex 18.36400099999999 3.5999999999999996 11.0
  endloop
endfacet
facet normal 0.0 0.0 -1.0
  outer loop
    vertex 15.864000999999991 43.8 11.0
    vertex 1.2000000000000002 1.1999999999999982 11.0
    vertex 1.2000000000000002 43.8 11.0
  endloop
endfacet
facet normal 0.0 0.0 -1.0
  outer loop
    vertex 1.2000000000000002 1.1999999999999982 11.0
    vertex 15.864000999999991 43.8 11.0
    vertex 15.864000999999991 1.1999999999999988 11.0
  endloop
endfacet
facet normal 0.0 0.0 -1.0
  outer loop
    vertex 15.864000999999991 1.1999999999999988 11.0
    vertex 15.864000999999991 43.8 11.0
    vertex 15.864000999999991 41.39999999999999 11.0
  endloop
endfacet
facet normal 0.0 0.0 -1.0
  outer loop
    vertex 15.864000999999991 1.1999999999999988 11.0
    vertex 15.864000999999991 41.39999999999999 11.0
    vertex 15.864000999999991 38.39999999999999 11.0
  endloop
endfacet
facet normal 0.0 0.0 -1.0
  outer loop
    vertex 15.864000999999991 1.1999999999999988 11.0
    vertex 15.864000999999991 38.39999999999999 11.0
    vertex 15.864000999999991 6.599999999999999 11.0
  endloop
endfacet
facet normal 0.0 0.0 -1.0
  outer loop
    vertex 15.864000999999991 1.1999999999999988 11.0
    vertex 15.864000999999991 6.599999999999999 11.0
    vertex 15.864000999999991 3.5999999999999996 11.0
  endloop
endfacet
facet normal -1.0 0.0 0.0
  outer loop
    vertex 1.2000000000000002 43.8 12.5
    vertex 1.2000000000000002 1.1999999999999982 11.0
    vertex 1.2000000000000002 1.1999999999999982 12.5
  endloop
endfacet
facet normal -1.0 0.0 0.0
  outer loop
    vertex 1.2000000000000002 1.1999999999999982 11.0
    vertex 1.2000000000000002 43.8 12.5
    vertex 1.2000000000000002 43.8 11.0
  endloop
endfacet
facet normal 0.0 1.0 0.0
  outer loop
    vertex 1.2000000000000002 43.8 12.5
    vertex 15.864000999999991 43.8 11.0
    vertex 1.2000000000000002 43.8 11.0
  endloop
endfacet
facet normal 0.0 1.0 0.0
  outer loop
    vertex 15.864000999999991 43.8 11.0
    vertex 1.2000000000000002 43.8 12.5
    vertex 15.864000999999991 43.8 12.5
  endloop
endfacet
facet normal 4.7429465366490144e-17 -1.0 0.0
  outer loop
    vertex 15.864000999999991 1.1999999999999988 12.5
    vertex 1.2000000000000002 1.1999999999999982 11.0
    vertex 15.864000999999991 1.1999999999999988 11.0
  endloop
endfacet
facet normal 4.7429465366490144e-17 -1.0 0.0
  outer loop
    vertex 1.2000000000000002 1.1999999999999982 11.0
    vertex 15.864000999999991 1.1999999999999988 12.5
    vertex 1.2000000000000002 1.1999999999999982 12.5
  endloop
endfacet
facet normal 1.0 -0.0 -0.0
  outer loop
    vertex 15.864000999999991 38.39999999999999 11.0
    vertex 15.864000999999991 6.599999999999999 12.5
    vertex 15.864000999999991 6.599999999999999 11.0
  endloop
endfacet
facet normal 1.0 -0.0 -0.0
  outer loop
    vertex 15.864000999999991 6.599999999999999 12.5
    vertex 15.864000999999991 38.39999999999999 11.0
    vertex 15.864000999999991 38.39999999999999 12.5
  endloop
endfacet
facet normal 0.0 1.0 0.0
  outer loop
    vertex 15.864000999999991 6.599999999999999 12.5
    vertex 18.36400099999999 6.599999999999999 11.0
    vertex 15.864000999999991 6.599999999999999 11.0
  endloop
endfacet
facet normal 0.0 1.0 0.0
  outer loop
    vertex 18.36400099999999 6.599999999999999 11.0
    vertex 15.864000999999991 6.599999999999999 12.5
    vertex 18.36400099999999 6.599999999999999 12.5
  endloop
endfacet
facet normal 1.0 -0.0 -0.0
  outer loop
    vertex 18.36400099999999 41.39999999999999 11.0
    vertex 18.36400099999999 38.39999999999999 12.5
    vertex 18.36400099999999 38.39999999999999 11.0
  endloop
endfacet
facet normal 1.0 -0.0 -0.0
  outer loop
    vertex 18.36400099999999 38.39999999999999 12.5
    vertex 18.36400099999999 41.39999999999999 11.0
    vertex 18.36400099999999 41.39999999999999 12.5
  endloop
endfacet
facet normal -0.0 -1.0 -0.0
  outer loop
    vertex 18.36400099999999 38.39999999999999 12.5
    vertex 15.864000999999991 38.39999999999999 11.0
    vertex 18.36400099999999 38.39999999999999 11.0
  endloop
endfacet
facet normal -0.0 -1.0 -0.0
  outer loop
    vertex 15.864000999999991 38.39999999999999 11.0
    vertex 18.36400099999999 38.39999999999999 12.5
    vertex 15.864000999999991 38.39999999999999 12.5
  endloop
endfacet
facet normal 1.0 -0.0 -0.0
  outer loop
    vertex 18.36400099999999 6.599999999999999 11.0
    vertex 18.36400099999999 3.5999999999999996 12.5
    vertex 18.36400099999999 3.5999999999999996 11.0
  endloop
endfacet
facet normal 1.0 -0.0 -0.0
  outer loop
    vertex 18.36400099999999 3.5999999999999996 12.5
    vertex 18.36400099999999 6.599999999999999 11.0
    vertex 18.36400099999999 6.599999999999999 12.5
  endloop
endfacet
facet normal 1.0 0.0 0.0
  outer loop
    vertex 15.864000999999991 3.5999999999999996 11.0
    vertex 15.864000999999991 1.1999999999999988 12.5
    vertex 15.864000999999991 1.1999999999999988 11.0
  endloop
endfacet
facet normal 1.0 0.0 0.0
  outer loop
    vertex 15.864000999999991 1.1999999999999988 12.5
    vertex 15.864000999999991 3.5999999999999996 11.0
    vertex 15.864000999999991 3.5999999999999996 12.5
  endloop
endfacet
facet normal 0.0 -1.0 0.0
  outer loop
    vertex 18.36400099999999 3.5999999999999996 12.5
    vertex 15.864000999999991 3.5999999999999996 11.0
    vertex 18.36400099999999 3.5999999999999996 11.0
  endloop
endfacet
facet normal 0.0 -1.0 0.0
  outer loop
    vertex 15.864000999999991 3.5999999999999996 11.0
    vertex 18.36400099999999 3.5999999999999996 12.5
    vertex 15.864000999999991 3.5999999999999996 12.5
  endloop
endfacet
facet normal 1.0 0.0 0.0
  outer loop
    vertex 15.864000999999991 43.8 11.0
    vertex 15.864000999999991 41.39999999999999 12.5
    vertex 15.864000999999991 41.39999999999999 11.0
  endloop
endfacet
facet normal 1.0 0.0 0.0
  outer loop
    vertex 15.864000999999991 41.39999999999999 12.5
    vertex 15.864000999999991 43.8 11.0
    vertex 15.864000999999991 43.8 12.5
  endloop
endfacet
facet normal 0.0 1.0 0.0
  outer loop
    vertex 15.864000999999991 41.39999999999999 12.5
    vertex 18.36400099999999 41.39999999999999 11.0
    vertex 15.864000999999991 41.39999999999999 11.0
  endloop
endfacet
facet normal 0.0 1.0 0.0
  outer loop
    vertex 18.36400099999999 41.39999999999999 11.0
    vertex 15.864000999999991 41.39999999999999 12.5
    vertex 18.36400099999999 41.39999999999999 12.5
  endloop
endfacet
facet normal -0.0 -0.0 1.0
  outer loop
    vertex 4.300000000000001 20.499999999999996 15.0
    vertex 2.8 21.999999999999996 15.0
    vertex 2.8 20.499999999999996 15.0
  endloop
endfacet
facet normal -0.0 -0.0 1.0
  outer loop
    vertex 2.8 21.999999999999996 15.0
    vertex 4.300000000000001 20.499999999999996 15.0
    vertex 4.3 21.999999999999996 15.0
  endloop
endfacet
facet normal 1.0 3.253807479862957e-16 -1.0846024932876539e-16
  outer loop
    vertex 4.3 20.999999999999996 12.5
    vertex 4.3 21.999999999999996 15.0
    vertex 4.300000000000001 20.499999999999996 15.0
  endloop
endfacet
facet normal 1.0 3.253807479862957e-16 -1.0846024932876539e-16
  outer loop
    vertex 4.3 21.999999999999996 15.0
    vertex 4.3 20.999999999999996 12.5
    vertex 4.3 21.999999999999996 12.500000000000002
  endloop
endfacet
facet normal -1.0 0.0 0.0
  outer loop
    vertex 2.8 24.499999999999993 15.0
    vertex 2.8 22.999999999999993 12.500000000000002
    vertex 2.8 22.999999999999993 15.0
  endloop
endfacet
facet normal -1.0 0.0 0.0
  outer loop
    vertex 2.8 22.999999999999993 12.500000000000002
    vertex 2.8 24.499999999999993 15.0
    vertex 2.8 23.999999999999996 12.5
  endloop
endfacet
facet normal -3.0484460862676105e-18 0.9805806756909203 -0.19611613513818363
  outer loop
    vertex 2.8 24.499999999999993 15.0
    vertex 4.3 23.999999999999996 12.5
    vertex 2.8 23.999999999999996 12.5
  endloop
endfacet
facet normal -3.0484460862676105e-18 0.9805806756909203 -0.19611613513818363
  outer loop
    vertex 4.3 23.999999999999996 12.5
    vertex 2.8 24.499999999999993 15.0
    vertex 4.299999999999998 24.499999999999993 15.0
  endloop
endfacet
facet normal 9.145338258804136e-18 -0.9805806756909203 -0.19611613513818363
  outer loop
    vertex 4.300000000000001 20.499999999999996 15.0
    vertex 2.8 20.999999999999996 12.5
    vertex 4.3 20.999999999999996 12.5
  endloop
endfacet
facet normal 9.145338258804136e-18 -0.9805806756909203 -0.19611613513818363
  outer loop
    vertex 2.8 20.999999999999996 12.5
    vertex 4.300000000000001 20.499999999999996 15.0
    vertex 2.8 20.499999999999996 15.0
  endloop
endfacet
facet normal -0.0 -0.0 1.0
  outer loop
    vertex 4.3 22.999999999999993 15.0
    vertex 2.8 24.499999999999993 15.0
    vertex 2.8 22.999999999999993 15.0
  endloop
endfacet
facet normal -0.0 -0.0 1.0
  outer loop
    vertex 2.8 24.499999999999993 15.0
    vertex 4.3 22.999999999999993 15.0
    vertex 4.299999999999998 24.499999999999993 15.0
  endloop
endfacet
facet normal 0.0 -1.0 0.0
  outer loop
    vertex 4.3 22.999999999999993 15.0
    vertex 2.8 22.999999999999993 12.500000000000002
    vertex 4.3 22.999999999999993 12.500000000000002
  endloop
endfacet
facet normal 0.0 -1.0 0.0
  outer loop
    vertex 2.8 22.999999999999993 12.500000000000002
    vertex 4.3 22.999999999999993 15.0
    vertex 2.8 22.999999999999993 15.0
  endloop
endfacet
facet normal -0.0 1.0 -0.0
  outer loop
    vertex 2.8 21.999999999999996 15.0
    vertex 4.3 21.999999999999996 12.500000000000002
    vertex 2.8 21.999999999999996 12.500000000000002
  endloop
endfacet
facet normal -0.0 1.0 -0.0
  outer loop
    vertex 4.3 21.999999999999996 12.500000000000002
    vertex 2.8 21.999999999999996 15.0
    vertex 4.3 21.999999999999996 15.0
  endloop
endfacet
facet normal -1.0 0.0 0.0
  outer loop
    vertex 2.8 21.999999999999996 15.0
    vertex 2.8 20.999999999999996 12.5
    vertex 2.8 20.499999999999996 15.0
  endloop
endfacet
facet normal -1.0 0.0 0.0
  outer loop
    vertex 2.8 20.999999999999996 12.5
    vertex 2.8 21.999999999999996 15.0
    vertex 2.8 21.999999999999996 12.500000000000002
  endloop
endfacet
facet normal 1.0 9.761422439588871e-16 3.2538074798629615e-16
  outer loop
    vertex 4.3 23.999999999999996 12.5
    vertex 4.3 22.999999999999993 15.0
    vertex 4.3 22.999999999999993 12.500000000000002
  endloop
endfacet
facet normal 1.0 9.761422439588871e-16 3.2538074798629615e-16
  outer loop
    vertex 4.3 22.999999999999993 15.0
    vertex 4.3 23.999999999999996 12.5
    vertex 4.299999999999998 24.499999999999993 15.0
  endloop
endfacet
endsolid PcbParc-Shield
